<svg xmlns="http://www.w3.org/2000/svg" viewBox="0 0 1500 600"><defs><clipPath id="a"><path d="M45.4 27H1488v527.2H45.4Zm0 0"/></clipPath><clipPath id="b"><path d="M45.4 27H68v23H45.4Zm0 0"/></clipPath><clipPath id="c"><path d="M82 27h35v23H82Zm0 0"/></clipPath><clipPath id="d"><path d="M132 27h35v23h-35Zm0 0"/></clipPath><clipPath id="e"><path d="M181 27h35v23h-35Zm0 0"/></clipPath><clipPath id="f"><path d="M230 27h36v23h-36Zm0 0"/></clipPath><clipPath id="g"><path d="M280 27h35v23h-35Zm0 0"/></clipPath><clipPath id="h"><path d="M329 27h35v23h-35Zm0 0"/></clipPath><clipPath id="i"><path d="M379 27h35v23h-35Zm0 0"/></clipPath><clipPath id="j"><path d="M428 27h35v23h-35Zm0 0"/></clipPath><clipPath id="k"><path d="M477 27h36v23h-36Zm0 0"/></clipPath><clipPath id="l"><path d="M527 27h35v23h-35Zm0 0"/></clipPath><clipPath id="m"><path d="M576 27h35v23h-35Zm0 0"/></clipPath><clipPath id="n"><path d="M626 27h35v23h-35Zm0 0"/></clipPath><clipPath id="o"><path d="M675 27h35v23h-35Zm0 0"/></clipPath><clipPath id="p"><path d="M724 27h36v23h-36Zm0 0"/></clipPath><clipPath id="q"><path d="M774 27h35v23h-35Zm0 0"/></clipPath><clipPath id="r"><path d="M1465 501h23v35h-23Zm0 0"/></clipPath></defs><path d="M50.5 32v517M50.5 550v7.2M99.5 32v517M99.5 550v7.2M149.5 32v517M149.5 550v7.2M198.5 32v517M198.5 550v7.2M248.5 32v517M248.5 550v7.2M297.5 32v517M297.5 550v7.2M346.5 32v517M346.5 550v7.2M396.5 32v517M396.5 550v7.2M445.5 32v517M445.5 550v7.2M494.5 32v517M494.5 550v7.2M544.5 32v517M544.5 550v7.2M593.5 32v517M593.5 550v7.2M643.5 32v517M643.5 550v7.2M692.5 32v517M692.5 550v7.2M742.5 32v517M742.5 550v7.2M791.5 32v517M791.5 550v7.2M840.5 32v517M840.5 550v7.2M890.5 32v517M890.5 550v7.2M939.5 32v517M939.5 550v7.2M988.5 32v517M988.5 550v7.2M1038.5 32v517M1038.5 550v7.2M1087.5 32v517M1087.5 550v7.2M1137.5 32v517M1137.5 550v7.2M1186.5 32v517M1186.5 550v7.2M1236.5 32v517M1236.5 550v7.2M1285.5 32v517M1285.5 550v7.2M1334.5 32v517M1334.5 550v7.2M1384.5 32v517M1384.5 550v7.2M1433.5 32v517M1433.5 550v7.2M1483.5 32v517M1483.5 550v7.2" style="fill:none;stroke-width:1;stroke-linecap:butt;stroke-linejoin:miter;stroke:#000;stroke-opacity:.0980392;stroke-miterlimit:10"/><path d="M745.77 588.77v-3.14h2.24c.65 0 1.12.13 1.42.4.3.27.45.66.45 1.17 0 .51-.15.9-.45 1.17-.3.28-.77.4-1.42.4Zm-1.13-4.1v8.56h1.13v-3.5h2.62c.86 0 1.52-.21 1.96-.66.45-.45.67-1.07.67-1.87s-.22-1.42-.67-1.87c-.44-.44-1.1-.66-1.96-.66Zm13.32 8.54c-.17.1-.42.16-.73.16a.88.88 0 0 1-.63-.23c-.15-.14-.23-.39-.23-.72-.28.33-.6.58-.98.72a3.23 3.23 0 0 1-2 .13 1.81 1.81 0 0 1-.66-.3 1.46 1.46 0 0 1-.44-.53 1.8 1.8 0 0 1-.16-.8c0-.35.06-.64.18-.87.12-.22.28-.4.48-.54.19-.14.42-.25.67-.32a8.55 8.55 0 0 1 1.57-.3c.25-.03.47-.07.67-.13.19-.05.34-.12.45-.22.11-.1.17-.25.17-.44a1 1 0 0 0-.13-.54.88.88 0 0 0-.32-.32 1.35 1.35 0 0 0-.44-.14 3.47 3.47 0 0 0-.5-.03c-.42 0-.78.08-1.07.24-.29.17-.45.48-.47.93h-1.02c.02-.38.1-.7.24-.97.14-.26.34-.48.58-.64.24-.17.51-.28.82-.35a5.88 5.88 0 0 1 1.82-.05c.28.03.53.12.75.24.23.13.4.3.54.52.14.23.2.52.2.88v3.2c0 .23.02.4.05.52.03.11.12.17.28.17.09 0 .2-.02.31-.06Zm-1.65-3.18c-.13.1-.3.17-.5.21-.21.05-.43.08-.66.1l-.69.1c-.23.04-.44.1-.62.18-.19.08-.34.2-.45.34a.95.95 0 0 0-.18.6c0 .17.04.32.1.43.07.12.16.21.27.28.1.08.23.13.38.16a2.37 2.37 0 0 0 1.32-.09c.24-.09.43-.2.58-.35a1.35 1.35 0 0 0 .45-.92Zm2.12-3v6.2h1.02v-2.76c0-.4.04-.75.12-1.06.08-.3.2-.57.39-.78.17-.22.4-.38.7-.5.28-.1.63-.17 1.04-.17v-1.07c-.56-.02-1.01.09-1.37.33-.36.24-.67.62-.92 1.12h-.02v-1.3Zm5.45 0v-1.86h-1.02v1.86h-1.05v.9h1.05v3.95c0 .29.03.52.09.7.05.17.14.3.26.4.11.1.26.16.45.2.19.03.41.05.68.05h.78v-.9h-.47l-.39-.01a.5.5 0 0 1-.23-.08.3.3 0 0 1-.12-.17 1.12 1.12 0 0 1-.03-.29v-3.85h1.24v-.9Zm3.67-1.12v-1.24h-1.02v1.24Zm-1.02 1.12v6.2h1.02v-6.2Zm7.15 2h1.05a2.42 2.42 0 0 0-.28-.96 2.1 2.1 0 0 0-.59-.67c-.23-.17-.5-.3-.8-.39-.32-.08-.65-.12-1-.12-.49 0-.92.08-1.29.25-.36.18-.67.41-.91.71-.25.3-.43.65-.55 1.06a4.5 4.5 0 0 0 0 2.58c.13.38.32.72.56 1 .24.28.55.5.91.65.36.15.78.23 1.26.23.79 0 1.41-.21 1.87-.63.47-.41.75-1 .86-1.78h-1.04c-.07.49-.24.86-.52 1.12-.29.27-.68.4-1.19.4a1.6 1.6 0 0 1-1.4-.7 2.27 2.27 0 0 1-.3-.73 4.08 4.08 0 0 1 0-1.75c.05-.29.16-.55.3-.77.15-.22.35-.4.6-.54.25-.13.55-.2.92-.2.43 0 .78.1 1.04.32.25.21.42.52.5.91Zm1.85-4.36v8.56h1.02v-8.56Zm7.24 4.87h-3.56c.02-.24.07-.47.16-.68.09-.21.2-.4.36-.56a1.74 1.74 0 0 1 1.26-.52c.25 0 .49.05.7.15a1.7 1.7 0 0 1 .92.93c.1.21.15.44.16.68Zm.99 1.73h-1.01c-.09.4-.27.7-.54.91-.28.2-.64.3-1.07.3-.33 0-.62-.06-.87-.17a1.7 1.7 0 0 1-.96-1.1c-.08-.24-.1-.5-.1-.77h4.65c.01-.38-.02-.77-.1-1.19-.1-.41-.24-.8-.46-1.15a2.74 2.74 0 0 0-.88-.87 2.56 2.56 0 0 0-1.37-.34 2.81 2.81 0 0 0-2.1.9c-.26.3-.46.64-.6 1.03-.15.4-.22.82-.22 1.3.02.47.09.9.21 1.3s.31.75.56 1.03c.25.3.55.51.92.67.36.17.79.25 1.29.25.7 0 1.28-.18 1.75-.53.46-.35.76-.88.9-1.57Zm1.33 0h-1.02c.02.39.1.72.24.99.15.26.34.48.58.65.24.16.51.28.82.35a4.25 4.25 0 0 0 1.93.02c.32-.07.6-.17.85-.32.26-.16.46-.35.62-.6.15-.25.23-.56.23-.94a1.44 1.44 0 0 0-.63-1.24c-.19-.13-.4-.24-.65-.32a24.03 24.03 0 0 0-1.47-.37 4.4 4.4 0 0 1-.65-.19c-.19-.07-.35-.17-.47-.28a.57.57 0 0 1-.18-.44c0-.16.03-.3.11-.4.08-.09.19-.17.31-.23.13-.06.27-.1.43-.13l.46-.03c.17 0 .34.01.5.05.17.03.31.1.45.18a.97.97 0 0 1 .5.81h1.01c-.02-.38-.1-.69-.24-.94a1.65 1.65 0 0 0-.54-.6 2.2 2.2 0 0 0-.79-.31c-.3-.06-.62-.1-.97-.1-.27 0-.55.04-.82.1-.28.07-.53.18-.75.32-.22.14-.4.32-.54.55-.14.22-.2.49-.2.8 0 .4.1.71.3.94.2.22.44.4.74.52s.63.22.98.28c.35.07.68.15.98.24.3.08.55.19.75.32.2.14.3.34.3.6 0 .2-.05.36-.15.48a.86.86 0 0 1-.36.28c-.15.07-.31.1-.49.13a3.82 3.82 0 0 1-1.1-.02c-.2-.04-.38-.1-.53-.2a1.08 1.08 0 0 1-.54-.94Zm-41.4-9.46" style="stroke:none;fill-rule:nonzero;fill:#666;fill-opacity:1"/><path d="M51 549.5h1432M42.4 549.5H50M51 484.5h1432M42.4 484.5H50M51 419.5h1432M42.4 419.5H50M51 355.5h1432M42.4 355.5H50M51 290.5h1432M42.4 290.5H50M51 225.5h1432M42.4 225.5H50M51 161.5h1432M42.4 161.5H50M51 96.5h1432M42.4 96.5H50M51 32.5h1432M42.4 32.5H50" style="fill:none;stroke-width:1;stroke-linecap:butt;stroke-linejoin:miter;stroke:#000;stroke-opacity:.0980392;stroke-miterlimit:10"/><path d="M7.07 300.66h8.56v-1.13h-3.92v-3.94h-.96v3.94H8.02v-4.5h-.95Zm4.1-8.13H8.02v-2.24c0-.65.14-1.12.4-1.42.28-.3.67-.45 1.18-.45.5 0 .9.15 1.17.45.28.3.4.77.4 1.42Zm-4.1 1.13h8.56v-1.13h-3.5v-2.62c0-.86-.21-1.52-.66-1.96a2.54 2.54 0 0 0-1.87-.67c-.8 0-1.42.22-1.87.67-.44.44-.66 1.1-.66 1.96Zm2.5-12.95v-1.08c-.47.01-.87.1-1.21.27-.34.16-.63.39-.85.67-.22.29-.39.62-.5 1a4.65 4.65 0 0 0 0 2.36c.1.37.25.7.46 1a2.28 2.28 0 0 0 1.9.97c.4 0 .72-.08.98-.24.26-.16.47-.36.63-.62.17-.26.3-.56.4-.89.1-.33.19-.66.26-1l.22-1c.08-.33.17-.62.29-.88.11-.26.26-.47.45-.63.18-.15.42-.23.72-.23s.57.06.77.2c.2.12.35.29.47.5.12.2.2.44.24.7a4.32 4.32 0 0 1-.04 1.7c-.08.31-.2.58-.37.8-.17.23-.39.42-.65.56-.26.14-.57.2-.93.2v1.09c.52 0 .97-.1 1.35-.29.38-.18.7-.44.94-.76s.42-.7.54-1.13a5 5 0 0 0-.4-3.62c-.2-.32-.47-.58-.8-.79-.31-.2-.7-.3-1.16-.3-.42 0-.78.08-1.05.23-.28.16-.52.37-.7.63a3.3 3.3 0 0 0-.44.88 14.09 14.09 0 0 0-.5 2c-.07.33-.16.63-.26.88-.1.27-.24.47-.4.63a.9.9 0 0 1-.64.23 1.25 1.25 0 0 1-1.15-.6c-.12-.17-.2-.38-.25-.6a3.33 3.33 0 0 1-.07-.72c0-.59.14-1.08.41-1.45.28-.38.73-.6 1.34-.67Zm-5.36 20.9" style="stroke:none;fill-rule:nonzero;fill:#666;fill-opacity:1"/><path d="M720 10h40v12h-40Zm0 0" style="fill-rule:nonzero;fill:#000;fill-opacity:.0980392;stroke-width:3;stroke-linecap:butt;stroke-linejoin:miter;stroke:#4bc0c0;stroke-opacity:1;stroke-miterlimit:10"/><path d="M771.3 18.3v-6.43h-1.15v6.26c0 .48-.1.85-.3 1.13-.19.28-.55.42-1.06.42-.29 0-.52-.04-.7-.13a.98.98 0 0 1-.41-.35c-.1-.15-.18-.33-.22-.54-.03-.2-.06-.43-.06-.68v-.36h-1.13v.52c0 .82.21 1.44.64 1.86.43.42 1.05.63 1.85.63.48 0 .88-.07 1.2-.2a1.92 1.92 0 0 0 1.2-1.28c.09-.27.13-.56.13-.85Zm6.6-3.92h1.07c-.01-.47-.1-.88-.27-1.22-.16-.34-.39-.62-.67-.85a2.85 2.85 0 0 0-1-.49 4.66 4.66 0 0 0-2.36 0c-.37.1-.7.25-1 .45a2.28 2.28 0 0 0-.97 1.9c0 .4.09.72.24.98.16.26.36.47.63.64.25.16.55.3.88.4.33.1.66.18 1 .26l1 .22c.33.07.62.17.89.28.25.12.46.27.62.45.15.19.23.42.23.72 0 .31-.06.57-.19.77-.13.2-.3.36-.5.47-.21.12-.45.2-.7.25a4.32 4.32 0 0 1-1.71-.05 2.4 2.4 0 0 1-.8-.37 1.92 1.92 0 0 1-.76-1.57h-1.08c0 .52.09.97.28 1.35.18.38.44.69.76.93.33.25.7.43 1.13.55a5 5 0 0 0 3.62-.4c.32-.2.58-.47.79-.8.2-.32.3-.7.3-1.16 0-.43-.08-.78-.23-1.06a2.07 2.07 0 0 0-.63-.7 3.3 3.3 0 0 0-.88-.44 14.09 14.09 0 0 0-2-.5 4.93 4.93 0 0 1-.88-.26c-.26-.1-.47-.24-.63-.4a.9.9 0 0 1-.23-.64 1.25 1.25 0 0 1 .6-1.15c.17-.12.38-.2.6-.24.24-.05.48-.07.72-.07.59 0 1.08.13 1.46.4.38.29.6.73.66 1.35ZM766 9" style="stroke:none;fill-rule:nonzero;fill:#666;fill-opacity:1"/><path d="M50 549.5h1434" style="fill:none;stroke-width:1;stroke-linecap:butt;stroke-linejoin:miter;stroke:#000;stroke-opacity:.0980392;stroke-miterlimit:10"/><path d="M44.67 571.84v-8.51h-.78a1.69 1.69 0 0 1-.87 1.29c-.22.11-.47.2-.74.24-.27.04-.55.07-.84.07v.8h2.21v6.1Zm4.31-4.2v-.68a6.12 6.12 0 0 1 .22-1.5c.07-.24.17-.44.3-.63.14-.18.3-.32.5-.44.2-.1.45-.16.73-.16.3 0 .54.06.73.16.2.12.37.26.5.44.14.18.24.4.3.63a6.34 6.34 0 0 1 .22 1.5v.69c0 .32 0 .67-.02 1.07s-.09.77-.2 1.12c-.1.35-.28.64-.52.88s-.57.36-1 .36c-.44 0-.78-.12-1.01-.36a2.12 2.12 0 0 1-.53-.88c-.1-.35-.17-.72-.19-1.12l-.03-1.07Zm-1.08.02.03.97c.01.34.05.67.12.99.06.32.15.62.27.9a2.24 2.24 0 0 0 1.28 1.26c.32.13.7.19 1.13.19.45 0 .83-.06 1.15-.19a2.24 2.24 0 0 0 1.26-1.26c.13-.28.22-.58.28-.9.06-.32.1-.65.12-.99a20.95 20.95 0 0 0 0-1.94 6.28 6.28 0 0 0-.4-1.9 2.36 2.36 0 0 0-.48-.75 2.3 2.3 0 0 0-.8-.52c-.3-.13-.68-.2-1.13-.2-.44 0-.81.07-1.13.2-.31.13-.58.3-.79.52-.2.21-.37.46-.49.75a6.78 6.78 0 0 0-.4 1.9l-.02.97Zm8.08-.01v-.7a6.12 6.12 0 0 1 .22-1.49c.07-.24.17-.44.3-.63.14-.18.3-.32.5-.44.2-.1.45-.16.73-.16.3 0 .54.06.73.16.2.12.37.26.5.44.14.18.24.4.3.63a6.34 6.34 0 0 1 .22 1.5v.69c0 .32 0 .67-.02 1.07s-.09.77-.2 1.12c-.1.35-.28.64-.52.88s-.57.36-1 .36c-.44 0-.78-.12-1.01-.36a2.12 2.12 0 0 1-.53-.88c-.1-.35-.17-.72-.19-1.12l-.03-1.07Zm-1.08.01.03.97c.01.34.05.67.12.99.06.32.15.62.27.9a2.24 2.24 0 0 0 1.28 1.26c.32.13.7.19 1.13.19.45 0 .83-.06 1.15-.19a2.24 2.24 0 0 0 1.26-1.26c.13-.28.22-.58.28-.9.06-.32.1-.65.12-.99a20.95 20.95 0 0 0 0-1.94 6.28 6.28 0 0 0-.4-1.9 2.36 2.36 0 0 0-.48-.75 2.3 2.3 0 0 0-.8-.52c-.3-.13-.68-.2-1.13-.2-.44 0-.81.07-1.13.2-.31.13-.58.3-.79.52-.2.21-.37.46-.49.75a6.78 6.78 0 0 0-.4 1.9l-.02.97ZM90.33 566.34h1.02c-.01-.26.02-.51.08-.76.06-.26.16-.48.3-.68.13-.2.3-.36.51-.49.21-.12.47-.18.76-.18.23 0 .44.04.64.1a1.5 1.5 0 0 1 1 1.44c0 .29-.04.55-.13.77-.1.23-.23.44-.4.63-.19.19-.41.38-.68.57l-.95.62c-.3.17-.58.36-.86.56a3.85 3.85 0 0 0-1.26 1.63c-.14.35-.23.78-.27 1.29h5.55v-.9h-4.36c.04-.27.15-.5.3-.7.16-.2.35-.4.57-.58.22-.17.46-.34.72-.5l.8-.47c.26-.17.51-.34.76-.53.25-.18.47-.39.66-.61a2.64 2.64 0 0 0 .64-1.77c0-.4-.07-.76-.21-1.06a2.2 2.2 0 0 0-.57-.76 2.6 2.6 0 0 0-.85-.47 3.32 3.32 0 0 0-2.24.06 2.42 2.42 0 0 0-1.4 1.6c-.11.36-.16.76-.13 1.19Zm8.06 1.3v-.68a6.12 6.12 0 0 1 .22-1.5c.07-.24.16-.44.3-.63.13-.18.3-.32.5-.44.2-.1.44-.16.73-.16s.53.06.73.16c.2.12.36.26.5.44.13.18.23.4.3.63a6.34 6.34 0 0 1 .21 1.5l.01.69-.03 1.07c-.02.4-.09.77-.2 1.12-.1.35-.27.64-.52.88-.23.24-.57.36-1 .36-.44 0-.77-.12-1.01-.36a2.12 2.12 0 0 1-.52-.88c-.11-.35-.18-.72-.2-1.12-.02-.4-.02-.75-.02-1.07Zm-1.09.02.03.97c.01.34.06.67.12.99.06.32.16.62.28.9.11.28.28.53.48.75.22.22.48.39.8.51.31.13.69.19 1.13.19.45 0 .82-.06 1.14-.19a2.24 2.24 0 0 0 1.27-1.26 6.78 6.78 0 0 0 .4-1.9 20.95 20.95 0 0 0 0-1.93 6.28 6.28 0 0 0-.4-1.9 2.36 2.36 0 0 0-.5-.75 2.3 2.3 0 0 0-.78-.52c-.32-.13-.7-.2-1.13-.2-.44 0-.82.07-1.14.2-.31.13-.57.3-.79.52-.2.21-.37.46-.48.75-.12.3-.22.6-.28.91-.06.32-.1.65-.12.99l-.03.97Zm8.09-.01v-.7a6.12 6.12 0 0 1 .22-1.49c.07-.24.16-.44.3-.63.13-.18.3-.32.5-.44.2-.1.44-.16.73-.16s.53.06.73.16c.2.12.36.26.5.44.13.18.23.4.3.63a6.34 6.34 0 0 1 .21 1.5l.01.69-.03 1.07c-.02.4-.09.77-.2 1.12-.1.35-.27.64-.52.88-.23.24-.57.36-1 .36-.44 0-.77-.12-1.01-.36a2.12 2.12 0 0 1-.52-.88c-.11-.35-.18-.72-.2-1.12-.02-.4-.02-.75-.02-1.07Zm-1.09.01.03.97c.01.34.06.67.12.99.06.32.16.62.28.9.11.28.28.53.48.75.22.22.48.39.8.51.31.13.69.19 1.13.19.45 0 .82-.06 1.14-.19a2.24 2.24 0 0 0 1.27-1.26 6.78 6.78 0 0 0 .4-1.9 20.95 20.95 0 0 0 0-1.93 6.28 6.28 0 0 0-.4-1.9 2.36 2.36 0 0 0-.5-.75 2.3 2.3 0 0 0-.78-.52c-.32-.13-.7-.2-1.13-.2-.44 0-.82.07-1.14.2-.31.13-.57.3-.79.52-.2.21-.37.46-.48.75-.12.3-.22.6-.28.91-.06.32-.1.65-.12.99l-.03.97ZM141.82 566.98v.86c.19-.02.4-.04.6-.04.26 0 .5.04.72.1a1.53 1.53 0 0 1 1.1 1.54c0 .25-.05.48-.15.68-.1.2-.23.38-.4.52s-.37.25-.6.32c-.22.08-.45.12-.7.12-.58 0-1.03-.17-1.33-.52-.3-.35-.47-.8-.48-1.35h-1.02c0 .44.05.83.19 1.17a2.32 2.32 0 0 0 1.46 1.4 3.82 3.82 0 0 0 2.3.02 2.4 2.4 0 0 0 1.8-2.42c.01-.5-.12-.95-.37-1.33a1.78 1.78 0 0 0-1.15-.73v-.02c.33-.15.6-.37.84-.67.22-.3.33-.64.33-1.02 0-.4-.07-.74-.2-1.02a1.92 1.92 0 0 0-.55-.71c-.23-.18-.5-.32-.82-.42a3.75 3.75 0 0 0-1.02-.13c-.43 0-.8.06-1.12.2a2.25 2.25 0 0 0-1.31 1.43c-.12.34-.19.7-.2 1.11h1.02c0-.24.03-.48.1-.7.06-.23.16-.42.29-.59.13-.17.3-.3.5-.4.2-.1.44-.15.72-.15.43 0 .79.11 1.08.34.28.23.43.57.43 1.03a1.3 1.3 0 0 1-.49 1.03c-.14.12-.32.21-.51.27-.2.06-.4.09-.62.09H141.92l-.1-.01Zm5.97.67v-.7a6.12 6.12 0 0 1 .21-1.49c.07-.24.17-.44.3-.63.14-.18.3-.32.5-.44.2-.1.45-.16.74-.16.28 0 .53.06.73.16.2.12.36.26.5.44.13.18.23.4.3.63a6.34 6.34 0 0 1 .21 1.5v.69c0 .32 0 .67-.02 1.07s-.09.77-.2 1.12c-.1.35-.27.64-.52.88-.24.24-.57.36-1 .36-.44 0-.77-.12-1.01-.36a2.12 2.12 0 0 1-.53-.88c-.1-.35-.17-.72-.19-1.12-.02-.4-.02-.75-.02-1.07Zm-1.09.01.03.97c.01.34.06.67.12.99.06.32.15.62.28.9.11.28.28.53.48.75.21.22.48.39.8.51.3.13.68.19 1.13.19.44 0 .82-.06 1.14-.19a2.24 2.24 0 0 0 1.27-1.26 6.78 6.78 0 0 0 .4-1.9 20.95 20.95 0 0 0 0-1.93 6.28 6.28 0 0 0-.4-1.9 2.36 2.36 0 0 0-.5-.75 2.3 2.3 0 0 0-.78-.52c-.32-.13-.7-.2-1.13-.2-.45 0-.82.07-1.14.2-.31.13-.58.3-.79.52-.2.21-.37.46-.49.75a6.78 6.78 0 0 0-.4 1.9l-.02.97Zm8.09-.01v-.7a6.12 6.12 0 0 1 .21-1.49c.07-.24.17-.44.3-.63.14-.18.3-.32.5-.44.2-.1.45-.16.74-.16.28 0 .53.06.73.16.2.12.36.26.5.44.13.18.23.4.3.63a6.34 6.34 0 0 1 .21 1.5v.69c0 .32 0 .67-.02 1.07s-.09.77-.2 1.12c-.1.35-.27.64-.52.88-.24.24-.57.36-1 .36-.44 0-.77-.12-1.01-.36a2.12 2.12 0 0 1-.53-.88c-.1-.35-.17-.72-.19-1.12-.02-.4-.02-.75-.02-1.07Zm-1.09.01.03.97c.01.34.06.67.12.99.06.32.15.62.28.9.11.28.28.53.48.75.21.22.48.39.8.51.3.13.68.19 1.13.19.44 0 .82-.06 1.14-.19a2.24 2.24 0 0 0 1.27-1.26 6.78 6.78 0 0 0 .4-1.9 20.95 20.95 0 0 0 0-1.93 6.28 6.28 0 0 0-.4-1.9 2.36 2.36 0 0 0-.5-.75 2.3 2.3 0 0 0-.78-.52c-.32-.13-.7-.2-1.13-.2-.45 0-.82.07-1.14.2-.31.13-.58.3-.79.52-.2.21-.37.46-.49.75a6.78 6.78 0 0 0-.4 1.9l-.02.97ZM192.67 568.95h-2.86l2.83-4.17h.03Zm.96 0v-5.62h-.82l-3.87 5.53v.98h3.73v2h.96v-2h1.15v-.9Zm3.56-1.3v-.7a6.12 6.12 0 0 1 .22-1.49c.07-.24.16-.44.3-.63.13-.18.3-.32.5-.44.2-.1.44-.16.73-.16s.53.06.73.16c.2.12.37.26.5.44s.23.4.3.63a6.34 6.34 0 0 1 .21 1.5l.01.69-.03 1.07c-.02.4-.09.77-.2 1.12-.1.35-.27.64-.51.88s-.58.36-1.01.36c-.44 0-.77-.12-1.01-.36a2.12 2.12 0 0 1-.52-.88c-.1-.35-.18-.72-.2-1.12l-.02-1.07Zm-1.08.01c0 .31 0 .64.02.97.01.34.06.67.12.99.06.32.16.62.28.9a2.24 2.24 0 0 0 1.28 1.26c.31.13.69.19 1.13.19.45 0 .83-.06 1.14-.19a2.24 2.24 0 0 0 1.27-1.26c.12-.28.21-.58.28-.9.06-.32.1-.65.12-.99a20.95 20.95 0 0 0 0-1.94 6.28 6.28 0 0 0-.4-1.9 2.36 2.36 0 0 0-.5-.75 2.3 2.3 0 0 0-.78-.52c-.32-.13-.7-.2-1.13-.2-.44 0-.82.07-1.14.2-.31.13-.57.3-.78.52-.21.21-.38.46-.5.75a6.78 6.78 0 0 0-.4 1.9l-.01.97Zm8.08-.01v-.7a6.12 6.12 0 0 1 .22-1.49c.07-.24.16-.44.3-.63.13-.18.3-.32.5-.44.2-.1.44-.16.73-.16s.53.06.73.16c.2.12.37.26.5.44s.23.4.3.63a6.34 6.34 0 0 1 .21 1.5l.01.69-.03 1.07c-.02.4-.09.77-.2 1.12-.1.35-.27.64-.51.88s-.58.36-1.01.36c-.44 0-.77-.12-1.01-.36a2.12 2.12 0 0 1-.52-.88c-.1-.35-.18-.72-.2-1.12l-.02-1.07Zm-1.08.01c0 .31 0 .64.02.97.01.34.06.67.12.99.06.32.16.62.28.9a2.24 2.24 0 0 0 1.28 1.26c.31.13.69.19 1.13.19.45 0 .83-.06 1.14-.19a2.24 2.24 0 0 0 1.27-1.26c.12-.28.21-.58.28-.9.06-.32.1-.65.12-.99a20.95 20.95 0 0 0 0-1.94 6.28 6.28 0 0 0-.4-1.9 2.36 2.36 0 0 0-.5-.75 2.3 2.3 0 0 0-.78-.52c-.32-.13-.7-.2-1.13-.2-.44 0-.82.07-1.14.2-.31.13-.57.3-.78.52-.21.21-.38.46-.5.75a6.78 6.78 0 0 0-.4 1.9l-.01.97ZM243.64 564.37v-.9h-4.2l-.8 4.42.88.05c.2-.24.43-.44.7-.58.25-.15.55-.23.89-.23.28 0 .55.05.78.15a1.75 1.75 0 0 1 1 1 2.43 2.43 0 0 1 0 1.66c-.1.26-.23.47-.4.63-.16.17-.35.3-.57.38a2 2 0 0 1-1.4.01 1.6 1.6 0 0 1-1.08-1.42h-1.02c.01.39.08.73.23 1.03.14.3.34.56.58.77.25.2.54.36.86.46.33.11.68.17 1.04.17.5 0 .93-.08 1.3-.24a2.63 2.63 0 0 0 1.49-1.54 3.44 3.44 0 0 0-.03-2.33 2.42 2.42 0 0 0-1.46-1.46c-.34-.1-.7-.17-1.07-.17-.29 0-.58.05-.87.15-.3.1-.53.26-.71.46l-.03-.02.46-2.45Zm2.95 3.28v-.7a6.12 6.12 0 0 1 .21-1.49c.07-.24.17-.44.3-.63.14-.18.3-.32.5-.44.2-.1.45-.16.74-.16.28 0 .53.06.73.16.2.12.36.26.5.44.13.18.23.4.3.63a6.34 6.34 0 0 1 .21 1.5l.01.69-.03 1.07c-.02.4-.09.77-.2 1.12-.1.35-.27.64-.52.88-.23.24-.57.36-1 .36-.44 0-.77-.12-1.01-.36a2.12 2.12 0 0 1-.53-.88c-.1-.35-.17-.72-.19-1.12-.02-.4-.02-.75-.02-1.07Zm-1.09.01.03.97c.01.34.06.67.12.99.06.32.15.62.28.9.11.28.28.53.48.75.22.22.48.39.8.51.31.13.68.19 1.13.19.45 0 .82-.06 1.14-.19a2.24 2.24 0 0 0 1.27-1.26 6.78 6.78 0 0 0 .4-1.9 20.95 20.95 0 0 0 0-1.93 6.28 6.28 0 0 0-.4-1.9 2.36 2.36 0 0 0-.5-.75 2.3 2.3 0 0 0-.78-.52c-.32-.13-.7-.2-1.13-.2-.45 0-.82.07-1.14.2-.31.13-.57.3-.79.52-.2.21-.37.46-.48.75-.13.3-.22.6-.28.91-.06.32-.1.65-.12.99l-.03.97Zm8.09-.01v-.7a6.12 6.12 0 0 1 .21-1.49c.07-.24.17-.44.3-.63.14-.18.3-.32.5-.44.2-.1.45-.16.74-.16.28 0 .53.06.73.16.2.12.36.26.5.44.13.18.23.4.3.63a6.34 6.34 0 0 1 .21 1.5l.01.69-.03 1.07c-.02.4-.09.77-.2 1.12-.1.35-.27.64-.52.88-.23.24-.57.36-1 .36-.44 0-.77-.12-1.01-.36a2.12 2.12 0 0 1-.53-.88c-.1-.35-.17-.72-.19-1.12-.02-.4-.02-.75-.02-1.07Zm-1.09.01.03.97c.01.34.06.67.12.99.06.32.15.62.28.9.11.28.28.53.48.75.22.22.48.39.8.51.31.13.68.19 1.13.19.45 0 .82-.06 1.14-.19a2.24 2.24 0 0 0 1.27-1.26 6.78 6.78 0 0 0 .4-1.9 20.95 20.95 0 0 0 0-1.93 6.28 6.28 0 0 0-.4-1.9 2.36 2.36 0 0 0-.5-.75 2.3 2.3 0 0 0-.78-.52c-.32-.13-.7-.2-1.13-.2-.45 0-.82.07-1.14.2-.31.13-.57.3-.79.52-.2.21-.37.46-.48.75-.13.3-.22.6-.28.91-.06.32-.1.65-.12.99l-.03.97ZM292.37 565.5h1.02c-.07-.7-.3-1.24-.72-1.61a2.44 2.44 0 0 0-1.68-.56c-.61 0-1.12.13-1.52.38-.4.26-.72.6-.95 1.02-.25.43-.41.91-.52 1.46a9.28 9.28 0 0 0-.04 3.1c.06.47.2.9.41 1.31.2.4.5.73.89.98.38.26.9.39 1.52.39.54 0 .99-.1 1.35-.27a2.55 2.55 0 0 0 1.35-1.6 3.61 3.61 0 0 0-.03-2.07 2.66 2.66 0 0 0-.51-.87 2.3 2.3 0 0 0-.82-.59c-.32-.14-.69-.2-1.1-.2-.46 0-.87.08-1.23.26a2.2 2.2 0 0 0-.9.85l-.01-.02c0-.33.03-.68.09-1.06s.16-.72.3-1.05c.16-.32.36-.6.62-.8.27-.21.62-.32 1.05-.32.4 0 .74.11.98.34.25.24.4.55.45.93Zm-1.54 1.77c.29 0 .54.05.76.15a1.53 1.53 0 0 1 .86 1.03c.06.23.1.48.1.75 0 .25-.04.48-.12.71-.07.23-.18.43-.33.6a1.54 1.54 0 0 1-1.27.57c-.28 0-.53-.05-.75-.15a1.63 1.63 0 0 1-.9-1 2.49 2.49 0 0 1 0-1.5c.08-.23.2-.44.34-.61a1.68 1.68 0 0 1 1.31-.55Zm5.15.38v-.7a6.12 6.12 0 0 1 .22-1.49c.07-.24.17-.44.3-.63.14-.18.3-.32.5-.44.2-.1.45-.16.73-.16.3 0 .54.06.73.16.2.12.37.26.5.44.14.18.24.4.3.63a6.34 6.34 0 0 1 .22 1.5v.69c0 .32 0 .67-.02 1.07s-.09.77-.2 1.12c-.1.35-.28.64-.52.88s-.57.36-1 .36c-.44 0-.78-.12-1.01-.36a2.12 2.12 0 0 1-.53-.88c-.1-.35-.17-.72-.19-1.12l-.03-1.07Zm-1.08.01.03.97c.01.34.05.67.12.99.06.32.15.62.27.9a2.24 2.24 0 0 0 1.28 1.26c.32.13.7.19 1.13.19.45 0 .83-.06 1.14-.19a2.24 2.24 0 0 0 1.27-1.26c.13-.28.22-.58.28-.9.06-.32.1-.65.12-.99a20.95 20.95 0 0 0 0-1.94 6.28 6.28 0 0 0-.4-1.9 2.36 2.36 0 0 0-.48-.75 2.3 2.3 0 0 0-.8-.52c-.3-.13-.68-.2-1.13-.2-.44 0-.81.07-1.13.2-.31.13-.58.3-.79.52-.2.21-.37.46-.49.75a6.78 6.78 0 0 0-.4 1.9l-.02.97Zm8.08-.01v-.7a6.12 6.12 0 0 1 .22-1.49c.07-.24.17-.44.3-.63.14-.18.3-.32.5-.44.2-.1.45-.16.73-.16.3 0 .54.06.73.16.2.12.37.26.5.44.14.18.24.4.3.63a6.34 6.34 0 0 1 .22 1.5v.69c0 .32 0 .67-.02 1.07s-.09.77-.2 1.12c-.1.35-.28.64-.52.88s-.57.36-1 .36c-.44 0-.78-.12-1.01-.36a2.12 2.12 0 0 1-.53-.88c-.1-.35-.17-.72-.19-1.12l-.03-1.07Zm-1.08.01.03.97c.01.34.05.67.12.99.06.32.15.62.27.9a2.24 2.24 0 0 0 1.28 1.26c.32.13.7.19 1.13.19.45 0 .83-.06 1.14-.19a2.24 2.24 0 0 0 1.27-1.26c.13-.28.22-.58.28-.9.06-.32.1-.65.12-.99a20.95 20.95 0 0 0 0-1.94 6.28 6.28 0 0 0-.4-1.9 2.36 2.36 0 0 0-.48-.75 2.3 2.3 0 0 0-.8-.52c-.3-.13-.68-.2-1.13-.2-.44 0-.81.07-1.13.2-.31.13-.58.3-.79.52-.2.21-.37.46-.49.75a6.78 6.78 0 0 0-.4 1.9l-.02.97ZM342.91 564.35v-.88h-5.5v.96h4.45a13.7 13.7 0 0 0-2.27 3.33 12.1 12.1 0 0 0-1.09 4.08h1.14c.04-.67.16-1.35.34-2.05a13.6 13.6 0 0 1 1.72-3.93c.37-.58.78-1.09 1.21-1.51Zm2.48 3.3v-.7a6.12 6.12 0 0 1 .22-1.49c.07-.24.16-.44.3-.63.13-.18.3-.32.5-.44.2-.1.44-.16.73-.16s.53.06.73.16c.2.12.36.26.5.44.13.18.23.4.3.63a6.34 6.34 0 0 1 .21 1.5l.01.69-.03 1.07c-.02.4-.09.77-.2 1.12-.1.35-.27.64-.52.88-.23.24-.57.36-1 .36-.44 0-.77-.12-1.01-.36a2.12 2.12 0 0 1-.52-.88c-.11-.35-.18-.72-.2-1.12-.02-.4-.02-.75-.02-1.07Zm-1.09.01.03.97c.01.34.06.67.12.99.06.32.16.62.28.9.11.28.28.53.48.75.22.22.48.39.8.51.31.13.69.19 1.13.19.45 0 .82-.06 1.14-.19a2.24 2.24 0 0 0 1.27-1.26 6.78 6.78 0 0 0 .4-1.9 20.95 20.95 0 0 0 0-1.93 6.28 6.28 0 0 0-.4-1.9 2.36 2.36 0 0 0-.5-.75 2.3 2.3 0 0 0-.78-.52c-.32-.13-.7-.2-1.13-.2-.44 0-.82.07-1.14.2-.31.13-.57.3-.79.52-.2.21-.37.46-.48.75-.12.3-.22.6-.28.91-.06.32-.1.65-.12.99l-.03.97Zm8.09-.01v-.7a6.12 6.12 0 0 1 .22-1.49c.07-.24.16-.44.3-.63.13-.18.3-.32.5-.44.2-.1.44-.16.73-.16s.53.06.73.16c.2.12.36.26.5.44.13.18.23.4.3.63a6.34 6.34 0 0 1 .21 1.5l.01.69-.03 1.07c-.02.4-.09.77-.2 1.12-.1.35-.27.64-.52.88-.23.24-.57.36-1 .36-.44 0-.77-.12-1.01-.36a2.12 2.12 0 0 1-.52-.88c-.11-.35-.18-.72-.2-1.12-.02-.4-.02-.75-.02-1.07Zm-1.09.01.03.97c.01.34.06.67.12.99.06.32.16.62.28.9.11.28.28.53.48.75.22.22.48.39.8.51.31.13.69.19 1.13.19.45 0 .82-.06 1.14-.19a2.24 2.24 0 0 0 1.27-1.26 6.78 6.78 0 0 0 .4-1.9 20.95 20.95 0 0 0 0-1.93 6.28 6.28 0 0 0-.4-1.9 2.36 2.36 0 0 0-.5-.75 2.3 2.3 0 0 0-.78-.52c-.32-.13-.7-.2-1.13-.2-.44 0-.82.07-1.14.2-.31.13-.57.3-.79.52-.2.21-.37.46-.48.75-.12.3-.22.6-.28.91-.06.32-.1.65-.12.99l-.03.97ZM388.06 565.54a1.22 1.22 0 0 1 .44-.98c.13-.1.29-.2.47-.25a2 2 0 0 1 .58-.08c.41 0 .75.11 1.02.33.27.22.4.55.4.98 0 .43-.13.76-.4 1-.25.25-.59.36-1 .36-.2 0-.4-.02-.59-.08a1.35 1.35 0 0 1-.48-.25c-.13-.11-.24-.26-.32-.43a1.38 1.38 0 0 1-.12-.6Zm-1.08-.04c0 .38.1.74.32 1.06.22.33.5.56.87.7-.48.17-.85.44-1.1.81a2.7 2.7 0 0 0-.16 2.45c.14.33.34.6.6.81.26.22.57.38.92.48a3.97 3.97 0 0 0 2.25 0 2.4 2.4 0 0 0 1.71-2.41c0-.54-.12-.99-.37-1.35a2.08 2.08 0 0 0-1.14-.78 2 2 0 0 0 .86-.72c.2-.32.31-.67.31-1.05 0-.27-.04-.54-.14-.8s-.25-.49-.45-.7c-.2-.2-.47-.36-.8-.48a3.35 3.35 0 0 0-2.12-.05c-.3.1-.57.24-.8.42-.24.18-.42.41-.56.68-.13.27-.2.58-.2.93Zm.78 3.94a1.55 1.55 0 0 1 1.1-1.52c.22-.08.45-.12.7-.12a1.88 1.88 0 0 1 1.24.47 1.55 1.55 0 0 1 .51 1.16 1.64 1.64 0 0 1-.49 1.18 1.85 1.85 0 0 1-1.25.47c-.53 0-.96-.15-1.3-.44a1.5 1.5 0 0 1-.51-1.2Zm7.03-1.8v-.68a6.12 6.12 0 0 1 .21-1.5c.07-.24.17-.44.3-.63.14-.18.3-.32.5-.44.2-.1.45-.16.74-.16.28 0 .53.06.73.16.2.12.36.26.5.44.13.18.23.4.3.63a6.34 6.34 0 0 1 .21 1.5v.69c0 .32 0 .67-.02 1.07s-.09.77-.2 1.12c-.1.35-.27.64-.52.88-.24.24-.57.36-1 .36-.44 0-.77-.12-1.01-.36a2.12 2.12 0 0 1-.53-.88c-.1-.35-.17-.72-.19-1.12-.02-.4-.02-.75-.02-1.07Zm-1.09.02.03.97c.01.34.06.67.12.99.06.32.15.62.27.9a2.24 2.24 0 0 0 1.28 1.26c.32.13.7.19 1.14.19.44 0 .82-.06 1.14-.19a2.24 2.24 0 0 0 1.27-1.26 6.78 6.78 0 0 0 .4-1.9 20.95 20.95 0 0 0 0-1.93 6.28 6.28 0 0 0-.4-1.9 2.36 2.36 0 0 0-.5-.75 2.3 2.3 0 0 0-.78-.52c-.32-.13-.7-.2-1.13-.2-.45 0-.82.07-1.14.2-.31.13-.58.3-.79.52-.2.21-.37.46-.49.75a6.78 6.78 0 0 0-.4 1.9l-.02.97Zm8.09-.01v-.7a6.12 6.12 0 0 1 .21-1.49c.07-.24.17-.44.3-.63.14-.18.3-.32.5-.44.2-.1.45-.16.74-.16.28 0 .53.06.73.16.2.12.36.26.5.44.13.18.23.4.3.63a6.34 6.34 0 0 1 .21 1.5v.69c0 .32 0 .67-.02 1.07s-.09.77-.2 1.12c-.1.35-.27.64-.52.88-.24.24-.57.36-1 .36-.44 0-.77-.12-1.01-.36a2.12 2.12 0 0 1-.53-.88c-.1-.35-.17-.72-.19-1.12-.02-.4-.02-.75-.02-1.07Zm-1.09.01.03.97c.01.34.06.67.12.99.06.32.15.62.27.9a2.24 2.24 0 0 0 1.28 1.26c.32.13.7.19 1.14.19.44 0 .82-.06 1.14-.19a2.24 2.24 0 0 0 1.27-1.26 6.78 6.78 0 0 0 .4-1.9 20.95 20.95 0 0 0 0-1.93 6.28 6.28 0 0 0-.4-1.9 2.36 2.36 0 0 0-.5-.75 2.3 2.3 0 0 0-.78-.52c-.32-.13-.7-.2-1.13-.2-.45 0-.82.07-1.14.2-.31.13-.58.3-.79.52-.2.21-.37.46-.49.75a6.78 6.78 0 0 0-.4 1.9l-.02.97ZM437.21 569.79h-1.02c.06.73.33 1.28.8 1.64.47.36 1.07.54 1.78.54 1.03 0 1.78-.4 2.25-1.18.47-.8.7-1.92.7-3.4 0-.8-.08-1.47-.23-2a3.37 3.37 0 0 0-.63-1.23c-.27-.3-.57-.52-.93-.64a3.34 3.34 0 0 0-2.25.01 2.53 2.53 0 0 0-1.46 1.45c-.14.34-.21.71-.21 1.12 0 .42.06.8.17 1.15.12.35.3.65.52.9.23.25.51.44.85.58.33.14.72.22 1.15.22.41 0 .8-.11 1.15-.33.35-.2.62-.5.81-.85l.03.02a5.45 5.45 0 0 1-.52 2.48c-.31.54-.78.8-1.4.8-.4 0-.76-.1-1.06-.33-.3-.22-.46-.54-.5-.95Zm3.3-3.62c0 .25-.04.49-.12.72a1.67 1.67 0 0 1-2.83.6 1.92 1.92 0 0 1-.47-1.25c0-.26.03-.51.09-.75s.16-.45.29-.64c.13-.19.3-.34.51-.46.22-.1.47-.16.78-.16a1.6 1.6 0 0 1 1.3.58c.15.18.26.39.33.62.08.23.12.48.12.74Zm3.68 1.48v-.7a6.12 6.12 0 0 1 .22-1.49c.07-.24.16-.44.3-.63.13-.18.3-.32.5-.44.2-.1.44-.16.73-.16s.53.06.73.16c.2.12.37.26.5.44s.23.4.3.63a6.34 6.34 0 0 1 .21 1.5l.01.69-.03 1.07c-.02.4-.09.77-.2 1.12-.1.35-.27.64-.51.88s-.58.36-1.01.36c-.44 0-.77-.12-1.01-.36a2.12 2.12 0 0 1-.52-.88c-.1-.35-.18-.72-.2-1.12l-.02-1.07Zm-1.08.01c0 .31 0 .64.02.97.01.34.06.67.12.99.06.32.16.62.28.9a2.24 2.24 0 0 0 1.28 1.26c.31.13.69.19 1.13.19.45 0 .83-.06 1.14-.19a2.24 2.24 0 0 0 1.27-1.26 6.78 6.78 0 0 0 .4-1.9 20.95 20.95 0 0 0 0-1.93 6.28 6.28 0 0 0-.4-1.9 2.36 2.36 0 0 0-.5-.75 2.3 2.3 0 0 0-.78-.52c-.32-.13-.7-.2-1.13-.2-.44 0-.82.07-1.14.2-.31.13-.57.3-.78.52-.21.21-.38.46-.5.75a6.78 6.78 0 0 0-.4 1.9l-.01.97Zm8.08-.01v-.7a6.12 6.12 0 0 1 .22-1.49c.07-.24.16-.44.3-.63.13-.18.3-.32.5-.44.2-.1.44-.16.73-.16s.53.06.73.16c.2.12.37.26.5.44s.23.4.3.63a6.34 6.34 0 0 1 .21 1.5l.01.69-.03 1.07c-.02.4-.09.77-.2 1.12-.1.35-.27.64-.51.88s-.58.36-1.01.36c-.44 0-.77-.12-1.01-.36a2.12 2.12 0 0 1-.52-.88c-.1-.35-.18-.72-.2-1.12l-.02-1.07Zm-1.08.01c0 .31 0 .64.02.97.01.34.06.67.12.99.06.32.16.62.28.9a2.24 2.24 0 0 0 1.28 1.26c.31.13.69.19 1.13.19.45 0 .83-.06 1.14-.19a2.24 2.24 0 0 0 1.27-1.26 6.78 6.78 0 0 0 .4-1.9 20.95 20.95 0 0 0 0-1.93 6.28 6.28 0 0 0-.4-1.9 2.36 2.36 0 0 0-.5-.75 2.3 2.3 0 0 0-.78-.52c-.32-.13-.7-.2-1.13-.2-.44 0-.82.07-1.14.2-.31.13-.57.3-.78.52-.21.21-.38.46-.5.75a6.78 6.78 0 0 0-.4 1.9l-.01.97ZM485.27 571.84v-8.51h-.78a1.69 1.69 0 0 1-.87 1.29c-.22.11-.46.2-.74.24-.27.04-.55.07-.84.07v.8h2.21v6.1Zm4.32-4.2v-.68a6.12 6.12 0 0 1 .21-1.5c.07-.24.17-.44.3-.63.14-.18.3-.32.5-.44.2-.1.45-.16.74-.16s.53.06.73.16c.2.12.36.26.5.44.13.18.23.4.3.63a6.34 6.34 0 0 1 .21 1.5l.01.69-.03 1.07c-.02.4-.09.77-.2 1.12-.1.35-.27.64-.52.88-.23.24-.57.36-1 .36-.44 0-.77-.12-1.01-.36a2.12 2.12 0 0 1-.53-.88c-.1-.35-.17-.72-.19-1.12-.02-.4-.02-.75-.02-1.07Zm-1.09.02.03.97c.01.34.06.67.12.99.06.32.15.62.28.9.11.28.28.53.48.75.21.22.48.39.8.51.31.13.68.19 1.13.19.45 0 .82-.06 1.14-.19a2.24 2.24 0 0 0 1.27-1.26 6.78 6.78 0 0 0 .4-1.9 20.95 20.95 0 0 0 0-1.93 6.28 6.28 0 0 0-.4-1.9 2.36 2.36 0 0 0-.5-.75 2.3 2.3 0 0 0-.78-.52c-.32-.13-.7-.2-1.13-.2-.45 0-.82.07-1.14.2-.31.13-.57.3-.79.52-.2.21-.37.46-.48.75-.13.3-.22.6-.28.91-.06.32-.1.65-.12.99l-.03.97Zm8.09-.01v-.7a6.12 6.12 0 0 1 .21-1.49c.07-.24.17-.44.3-.63.14-.18.3-.32.5-.44.2-.1.45-.16.74-.16s.53.06.73.16c.2.12.36.26.5.44.13.18.23.4.3.63a6.34 6.34 0 0 1 .21 1.5l.01.69-.03 1.07c-.02.4-.09.77-.2 1.12-.1.35-.27.64-.52.88-.23.24-.57.36-1 .36-.44 0-.77-.12-1.01-.36a2.12 2.12 0 0 1-.53-.88c-.1-.35-.17-.72-.19-1.12-.02-.4-.02-.75-.02-1.07Zm-1.09.01.03.97c.01.34.06.67.12.99.06.32.15.62.28.9.11.28.28.53.48.75.21.22.48.39.8.51.31.13.68.19 1.13.19.45 0 .82-.06 1.14-.19a2.24 2.24 0 0 0 1.27-1.26 6.78 6.78 0 0 0 .4-1.9 20.95 20.95 0 0 0 0-1.93 6.28 6.28 0 0 0-.4-1.9 2.36 2.36 0 0 0-.5-.75 2.3 2.3 0 0 0-.78-.52c-.32-.13-.7-.2-1.13-.2-.45 0-.82.07-1.14.2-.31.13-.57.3-.79.52-.2.21-.37.46-.48.75-.13.3-.22.6-.28.91-.06.32-.1.65-.12.99l-.03.97Zm8.09-.01v-.7a6.12 6.12 0 0 1 .21-1.49c.07-.24.17-.44.3-.63.14-.18.3-.32.5-.44.2-.1.45-.16.74-.16s.53.06.73.16c.2.12.36.26.5.44.13.18.23.4.3.63a6.34 6.34 0 0 1 .21 1.5l.01.69-.03 1.07c-.02.4-.09.77-.2 1.12-.1.35-.27.64-.52.88-.23.24-.57.36-1 .36-.44 0-.77-.12-1.01-.36a2.12 2.12 0 0 1-.53-.88c-.1-.35-.17-.72-.19-1.12-.02-.4-.02-.75-.02-1.07Zm-1.09.01.03.97c.01.34.06.67.12.99.06.32.15.62.28.9.11.28.28.53.48.75.21.22.48.39.8.51.31.13.68.19 1.13.19.45 0 .82-.06 1.14-.19a2.24 2.24 0 0 0 1.27-1.26 6.78 6.78 0 0 0 .4-1.9 20.95 20.95 0 0 0 0-1.93 6.28 6.28 0 0 0-.4-1.9 2.36 2.36 0 0 0-.5-.75 2.3 2.3 0 0 0-.78-.52c-.32-.13-.7-.2-1.13-.2-.45 0-.82.07-1.14.2-.31.13-.57.3-.79.52-.2.21-.37.46-.48.75-.13.3-.22.6-.28.91-.06.32-.1.65-.12.99l-.03.97ZM534.67 571.84v-8.51h-.78a1.69 1.69 0 0 1-.87 1.29c-.22.11-.47.2-.74.24-.27.04-.55.07-.84.07v.8h2.21v6.1Zm7 0v-8.51h-.78a1.69 1.69 0 0 1-.87 1.29c-.22.11-.47.2-.74.24-.27.04-.55.07-.84.07v.8h2.21v6.1Zm4.31-4.2v-.68a6.12 6.12 0 0 1 .22-1.5c.07-.24.17-.44.3-.63.14-.18.3-.32.5-.44.2-.1.45-.16.73-.16.3 0 .54.06.73.16.2.12.37.26.5.44.14.18.24.4.3.63a6.34 6.34 0 0 1 .22 1.5v.69c0 .32 0 .67-.02 1.07s-.09.77-.2 1.12c-.1.35-.28.64-.52.88s-.57.36-1 .36c-.44 0-.78-.12-1.01-.36a2.12 2.12 0 0 1-.53-.88c-.1-.35-.17-.72-.19-1.12l-.03-1.07Zm-1.08.02.03.97c.01.34.05.67.12.99.06.32.15.62.27.9a2.24 2.24 0 0 0 1.28 1.26c.32.13.7.19 1.13.19.45 0 .83-.06 1.14-.19a2.24 2.24 0 0 0 1.27-1.26c.13-.28.22-.58.28-.9.06-.32.1-.65.12-.99a20.95 20.95 0 0 0 0-1.94 6.28 6.28 0 0 0-.4-1.9 2.36 2.36 0 0 0-.48-.75 2.3 2.3 0 0 0-.8-.52c-.3-.13-.68-.2-1.13-.2-.44 0-.81.07-1.13.2-.31.13-.58.3-.79.52-.2.21-.37.46-.49.75a6.78 6.78 0 0 0-.4 1.9l-.02.97Zm8.08-.01v-.7a6.12 6.12 0 0 1 .22-1.49c.07-.24.17-.44.3-.63.14-.18.3-.32.5-.44.2-.1.45-.16.73-.16.3 0 .54.06.73.16.2.12.37.26.5.44.14.18.24.4.3.63a6.34 6.34 0 0 1 .22 1.5v.69c0 .32 0 .67-.02 1.07s-.09.77-.2 1.12c-.1.35-.28.64-.52.88s-.57.36-1 .36c-.44 0-.78-.12-1.01-.36a2.12 2.12 0 0 1-.53-.88c-.1-.35-.17-.72-.19-1.12l-.03-1.07Zm-1.08.01.03.97c.01.34.05.67.12.99.06.32.15.62.27.9a2.24 2.24 0 0 0 1.28 1.26c.32.13.7.19 1.13.19.45 0 .83-.06 1.14-.19a2.24 2.24 0 0 0 1.27-1.26c.13-.28.22-.58.28-.9.06-.32.1-.65.12-.99a20.95 20.95 0 0 0 0-1.94 6.28 6.28 0 0 0-.4-1.9 2.36 2.36 0 0 0-.48-.75 2.3 2.3 0 0 0-.8-.52c-.3-.13-.68-.2-1.13-.2-.44 0-.81.07-1.13.2-.31.13-.58.3-.79.52-.2.21-.37.46-.49.75a6.78 6.78 0 0 0-.4 1.9l-.02.97ZM584.07 571.84v-8.51h-.78a1.69 1.69 0 0 1-.87 1.29c-.22.11-.46.2-.74.24-.27.04-.55.07-.84.07v.8h2.21v6.1Zm3.26-5.5h1.02c-.01-.26.02-.51.08-.76.06-.26.16-.48.3-.68.13-.2.3-.36.51-.49.21-.12.47-.18.76-.18.23 0 .44.04.64.1a1.5 1.5 0 0 1 1 1.44c0 .29-.04.55-.13.77-.1.23-.23.44-.4.63-.19.19-.41.38-.68.57l-.95.62c-.3.17-.58.36-.86.56a3.85 3.85 0 0 0-1.26 1.63c-.14.35-.23.78-.27 1.29h5.55v-.9h-4.36c.04-.27.15-.5.3-.7.16-.2.35-.4.57-.58.22-.17.46-.34.72-.5l.8-.47c.26-.17.51-.34.76-.53.25-.18.47-.39.66-.61a2.64 2.64 0 0 0 .64-1.77c0-.4-.07-.76-.21-1.06a2.2 2.2 0 0 0-.57-.76 2.6 2.6 0 0 0-.85-.47 3.32 3.32 0 0 0-2.24.06 2.42 2.42 0 0 0-1.4 1.6c-.11.36-.16.76-.13 1.19Zm8.06 1.3v-.68a6.12 6.12 0 0 1 .22-1.5c.07-.24.16-.44.3-.63.13-.18.3-.32.5-.44.2-.1.44-.16.73-.16s.53.06.73.16c.2.12.36.26.5.44.13.18.23.4.3.63a6.34 6.34 0 0 1 .21 1.5l.01.69-.03 1.07c-.02.4-.09.77-.2 1.12-.1.35-.27.64-.52.88-.23.24-.57.36-1 .36-.44 0-.77-.12-1.01-.36a2.12 2.12 0 0 1-.52-.88c-.11-.35-.18-.72-.2-1.12-.02-.4-.02-.75-.02-1.07Zm-1.09.02.03.97c.01.34.06.67.12.99.06.32.16.62.28.9.11.28.28.53.48.75.22.22.48.39.8.51.31.13.69.19 1.13.19.45 0 .82-.06 1.14-.19a2.24 2.24 0 0 0 1.27-1.26 6.78 6.78 0 0 0 .4-1.9 20.95 20.95 0 0 0 0-1.93 6.28 6.28 0 0 0-.4-1.9 2.36 2.36 0 0 0-.5-.75 2.3 2.3 0 0 0-.78-.52c-.32-.13-.7-.2-1.13-.2-.44 0-.82.07-1.14.2-.31.13-.57.3-.79.52-.2.21-.37.46-.48.75-.12.3-.22.6-.28.91-.06.32-.1.65-.12.99l-.03.97Zm8.09-.01v-.7a6.12 6.12 0 0 1 .22-1.49c.07-.24.16-.44.3-.63.13-.18.3-.32.5-.44.2-.1.44-.16.73-.16s.53.06.73.16c.2.12.36.26.5.44.13.18.23.4.3.63a6.34 6.34 0 0 1 .21 1.5l.01.69-.03 1.07c-.02.4-.09.77-.2 1.12-.1.35-.27.64-.52.88-.23.24-.57.36-1 .36-.44 0-.77-.12-1.01-.36a2.12 2.12 0 0 1-.52-.88c-.11-.35-.18-.72-.2-1.12-.02-.4-.02-.75-.02-1.07Zm-1.09.01.03.97c.01.34.06.67.12.99.06.32.16.62.28.9.11.28.28.53.48.75.22.22.48.39.8.51.31.13.69.19 1.13.19.45 0 .82-.06 1.14-.19a2.24 2.24 0 0 0 1.27-1.26 6.78 6.78 0 0 0 .4-1.9 20.95 20.95 0 0 0 0-1.93 6.28 6.28 0 0 0-.4-1.9 2.36 2.36 0 0 0-.5-.75 2.3 2.3 0 0 0-.78-.52c-.32-.13-.7-.2-1.13-.2-.44 0-.82.07-1.14.2-.31.13-.57.3-.79.52-.2.21-.37.46-.48.75-.12.3-.22.6-.28.91-.06.32-.1.65-.12.99l-.03.97ZM633.47 571.84v-8.51h-.78a1.69 1.69 0 0 1-.87 1.29c-.22.11-.46.2-.74.24-.27.04-.55.07-.84.07v.8h2.21v6.1Zm5.35-4.86v.86c.19-.02.4-.04.6-.04.26 0 .5.04.72.1a1.53 1.53 0 0 1 1.1 1.54c0 .25-.05.48-.15.68-.1.2-.23.38-.4.52s-.37.25-.6.32c-.22.08-.45.12-.7.12-.58 0-1.03-.17-1.33-.52-.3-.35-.47-.8-.48-1.35h-1.02c0 .44.05.83.19 1.17a2.32 2.32 0 0 0 1.46 1.4 3.82 3.82 0 0 0 2.3.02 2.4 2.4 0 0 0 1.8-2.42c.01-.5-.12-.95-.37-1.33a1.78 1.78 0 0 0-1.15-.73v-.02c.33-.15.6-.37.84-.67.22-.3.33-.64.33-1.02 0-.4-.07-.74-.2-1.02a1.92 1.92 0 0 0-.55-.71c-.23-.18-.5-.32-.82-.42a3.75 3.75 0 0 0-1.02-.13c-.43 0-.8.06-1.12.2a2.25 2.25 0 0 0-1.31 1.43c-.12.34-.19.7-.2 1.11h1.02c0-.24.03-.48.1-.7.06-.23.16-.42.29-.59.13-.17.3-.3.5-.4.2-.1.44-.15.72-.15.43 0 .79.11 1.08.34.28.23.43.57.43 1.03a1.3 1.3 0 0 1-.49 1.03c-.14.12-.32.21-.51.27-.2.06-.4.09-.62.09H638.92l-.1-.01Zm5.97.67v-.7a6.12 6.12 0 0 1 .21-1.49c.07-.24.17-.44.3-.63.14-.18.3-.32.5-.44.2-.1.45-.16.74-.16.28 0 .53.06.73.16.2.12.36.26.5.44.13.18.23.4.3.63a6.34 6.34 0 0 1 .21 1.5v.69c0 .32 0 .67-.02 1.07s-.09.77-.2 1.12c-.1.35-.27.64-.52.88-.24.24-.57.36-1 .36-.44 0-.77-.12-1.01-.36a2.12 2.12 0 0 1-.53-.88c-.1-.35-.17-.72-.19-1.12-.02-.4-.02-.75-.02-1.07Zm-1.09.01.03.97c.01.34.06.67.12.99.06.32.15.62.27.9a2.24 2.24 0 0 0 1.28 1.26c.32.13.7.19 1.14.19.44 0 .82-.06 1.14-.19a2.24 2.24 0 0 0 1.27-1.26 6.78 6.78 0 0 0 .4-1.9 20.95 20.95 0 0 0 0-1.93 6.28 6.28 0 0 0-.4-1.9 2.36 2.36 0 0 0-.5-.75 2.3 2.3 0 0 0-.78-.52c-.32-.13-.7-.2-1.13-.2-.45 0-.82.07-1.14.2-.31.13-.58.3-.79.52-.2.21-.37.46-.49.75a6.78 6.78 0 0 0-.4 1.9l-.02.97Zm8.09-.01v-.7a6.12 6.12 0 0 1 .21-1.49c.07-.24.17-.44.3-.63.14-.18.3-.32.5-.44.2-.1.45-.16.74-.16.28 0 .53.06.73.16.2.12.36.26.5.44.13.18.23.4.3.63a6.34 6.34 0 0 1 .21 1.5v.69c0 .32 0 .67-.02 1.07s-.09.77-.2 1.12c-.1.35-.27.64-.52.88-.24.24-.57.36-1 .36-.44 0-.77-.12-1.01-.36a2.12 2.12 0 0 1-.53-.88c-.1-.35-.17-.72-.19-1.12-.02-.4-.02-.75-.02-1.07Zm-1.09.01.03.97c.01.34.06.67.12.99.06.32.15.62.27.9a2.24 2.24 0 0 0 1.28 1.26c.32.13.7.19 1.14.19.44 0 .82-.06 1.14-.19a2.24 2.24 0 0 0 1.27-1.26 6.78 6.78 0 0 0 .4-1.9 20.95 20.95 0 0 0 0-1.93 6.28 6.28 0 0 0-.4-1.9 2.36 2.36 0 0 0-.5-.75 2.3 2.3 0 0 0-.78-.52c-.32-.13-.7-.2-1.13-.2-.45 0-.82.07-1.14.2-.31.13-.58.3-.79.52-.2.21-.37.46-.49.75a6.78 6.78 0 0 0-.4 1.9l-.02.97ZM682.88 571.84v-8.51h-.79c-.05.32-.16.58-.3.8-.16.2-.34.36-.57.48-.22.12-.46.2-.74.25-.27.04-.55.07-.84.07v.8h2.22v6.1Zm6.79-2.9h-2.86l2.83-4.16h.03Zm.96 0v-5.61h-.82l-3.87 5.53v.98h3.73v2h.96v-2h1.15v-.9Zm3.56-1.3v-.68a6.12 6.12 0 0 1 .22-1.5c.07-.24.16-.44.3-.63.13-.18.3-.32.5-.44.2-.1.44-.16.73-.16s.53.06.73.16c.2.12.37.26.5.44s.23.4.3.63a6.34 6.34 0 0 1 .21 1.5l.01.69-.03 1.07c-.02.4-.09.77-.2 1.12-.1.35-.27.64-.51.88s-.58.36-1.01.36c-.44 0-.77-.12-1.01-.36a2.12 2.12 0 0 1-.52-.88c-.1-.35-.18-.72-.2-1.12l-.02-1.07Zm-1.08.02c0 .31 0 .64.02.97.01.34.06.67.12.99.06.32.16.62.28.9a2.24 2.24 0 0 0 1.28 1.26c.31.13.69.19 1.13.19.45 0 .83-.06 1.14-.19a2.24 2.24 0 0 0 1.27-1.26 6.78 6.78 0 0 0 .4-1.9 20.95 20.95 0 0 0 0-1.93 6.28 6.28 0 0 0-.4-1.9 2.36 2.36 0 0 0-.5-.75 2.3 2.3 0 0 0-.78-.52c-.32-.13-.7-.2-1.13-.2-.44 0-.82.07-1.14.2-.31.13-.57.3-.78.52-.21.21-.38.46-.5.75a6.78 6.78 0 0 0-.4 1.9l-.01.97Zm8.08-.01v-.7a6.12 6.12 0 0 1 .22-1.49c.07-.24.16-.44.3-.63.13-.18.3-.32.5-.44.2-.1.44-.16.73-.16s.53.06.73.16c.2.12.37.26.5.44s.23.4.3.63a6.34 6.34 0 0 1 .21 1.5l.01.69-.03 1.07c-.02.4-.09.77-.2 1.12-.1.35-.27.64-.51.88s-.58.36-1.01.36c-.44 0-.77-.12-1.01-.36a2.12 2.12 0 0 1-.52-.88c-.1-.35-.18-.72-.2-1.12l-.02-1.07Zm-1.08.01c0 .31 0 .64.02.97.01.34.06.67.12.99.06.32.16.62.28.9a2.24 2.24 0 0 0 1.28 1.26c.31.13.69.19 1.13.19.45 0 .83-.06 1.14-.19a2.24 2.24 0 0 0 1.27-1.26 6.78 6.78 0 0 0 .4-1.9 20.95 20.95 0 0 0 0-1.93 6.28 6.28 0 0 0-.4-1.9 2.36 2.36 0 0 0-.5-.75 2.3 2.3 0 0 0-.78-.52c-.32-.13-.7-.2-1.13-.2-.44 0-.82.07-1.14.2-.31.13-.57.3-.78.52-.21.21-.38.46-.5.75a6.78 6.78 0 0 0-.4 1.9l-.01.97ZM732.27 571.84v-8.51h-.78a1.69 1.69 0 0 1-.87 1.29c-.22.11-.46.2-.74.24-.27.04-.55.07-.84.07v.8h2.21v6.1Zm8.37-7.47v-.9h-4.2l-.8 4.42.88.05c.2-.24.43-.44.7-.58.25-.15.55-.23.89-.23.28 0 .55.05.78.15a1.75 1.75 0 0 1 1 1 2.43 2.43 0 0 1 0 1.66c-.1.26-.23.47-.4.63-.16.17-.35.3-.57.38a2 2 0 0 1-1.4.01 1.6 1.6 0 0 1-1.08-1.42h-1.02c.01.39.08.73.23 1.03.14.3.34.56.58.77.25.2.54.36.86.46.33.11.68.17 1.04.17.5 0 .93-.08 1.3-.24a2.63 2.63 0 0 0 1.49-1.54 3.44 3.44 0 0 0-.03-2.33 2.42 2.42 0 0 0-1.46-1.46c-.34-.1-.7-.17-1.07-.17-.29 0-.58.05-.87.15-.3.1-.53.26-.71.46l-.03-.02.46-2.45Zm2.95 3.28v-.7a6.12 6.12 0 0 1 .21-1.49c.08-.24.17-.44.3-.63.14-.18.3-.32.5-.44.2-.1.45-.16.74-.16.28 0 .53.06.73.16.2.12.36.26.5.44.13.18.23.4.3.63a6.34 6.34 0 0 1 .21 1.5l.01.69-.03 1.07c-.02.4-.09.77-.2 1.12-.1.35-.27.64-.52.88-.23.24-.57.36-1 .36-.44 0-.77-.12-1.01-.36a2.12 2.12 0 0 1-.53-.88c-.1-.35-.17-.72-.19-1.12-.02-.4-.02-.75-.02-1.07Zm-1.09.01.03.97c.01.34.06.67.12.99.06.32.15.62.28.9.11.28.28.53.48.75.22.22.48.39.8.51.31.13.68.19 1.13.19.45 0 .82-.06 1.14-.19a2.24 2.24 0 0 0 1.27-1.26 6.78 6.78 0 0 0 .4-1.9 20.95 20.95 0 0 0 0-1.93 6.28 6.28 0 0 0-.4-1.9 2.36 2.36 0 0 0-.5-.75 2.3 2.3 0 0 0-.78-.52c-.32-.13-.7-.2-1.13-.2-.45 0-.82.07-1.14.2-.31.13-.58.3-.79.52-.2.21-.37.46-.48.75-.13.3-.22.6-.28.91-.06.32-.1.65-.12.99l-.03.97Zm8.09-.01v-.7a6.12 6.12 0 0 1 .21-1.49c.08-.24.17-.44.3-.63.14-.18.3-.32.5-.44.2-.1.45-.16.74-.16.28 0 .53.06.73.16.2.12.36.26.5.44.13.18.23.4.3.63a6.34 6.34 0 0 1 .21 1.5l.01.69-.03 1.07c-.02.4-.09.77-.2 1.12-.1.35-.27.64-.52.88-.23.24-.57.36-1 .36-.44 0-.77-.12-1.01-.36a2.12 2.12 0 0 1-.53-.88c-.1-.35-.17-.72-.19-1.12-.02-.4-.02-.75-.02-1.07Zm-1.09.01.03.97c.01.34.06.67.12.99.06.32.15.62.28.9.11.28.28.53.48.75.22.22.48.39.8.51.31.13.68.19 1.13.19.45 0 .82-.06 1.14-.19a2.24 2.24 0 0 0 1.27-1.26 6.78 6.78 0 0 0 .4-1.9 20.95 20.95 0 0 0 0-1.93 6.28 6.28 0 0 0-.4-1.9 2.36 2.36 0 0 0-.5-.75 2.3 2.3 0 0 0-.78-.52c-.32-.13-.7-.2-1.13-.2-.45 0-.82.07-1.14.2-.31.13-.58.3-.79.52-.2.21-.37.46-.48.75-.13.3-.22.6-.28.91-.06.32-.1.65-.12.99l-.03.97ZM781.67 571.84v-8.51h-.78a1.69 1.69 0 0 1-.87 1.29c-.22.11-.47.2-.74.24-.27.04-.55.07-.84.07v.8h2.21v6.1Zm7.7-6.34h1.02c-.07-.7-.3-1.24-.72-1.61a2.44 2.44 0 0 0-1.68-.56c-.61 0-1.12.13-1.52.38-.4.26-.72.6-.95 1.02-.25.43-.41.91-.52 1.46a9.28 9.28 0 0 0-.04 3.1c.06.47.2.9.41 1.31.2.4.5.73.89.98.38.26.9.39 1.52.39.54 0 .99-.1 1.35-.27a2.55 2.55 0 0 0 1.35-1.6 3.61 3.61 0 0 0-.03-2.07 2.66 2.66 0 0 0-.51-.87 2.3 2.3 0 0 0-.82-.59c-.32-.14-.69-.2-1.1-.2-.46 0-.87.08-1.23.26a2.2 2.2 0 0 0-.9.85l-.01-.02c0-.33.03-.68.09-1.06s.16-.72.3-1.05c.16-.32.36-.6.62-.8.27-.21.62-.32 1.05-.32.4 0 .74.11.98.34.25.24.4.55.45.93Zm-1.54 1.77c.29 0 .54.05.76.15a1.53 1.53 0 0 1 .86 1.03c.06.23.1.48.1.75 0 .25-.04.48-.12.71-.07.23-.18.43-.33.6a1.54 1.54 0 0 1-1.27.57c-.28 0-.53-.05-.75-.15a1.63 1.63 0 0 1-.9-1 2.49 2.49 0 0 1 0-1.5c.08-.23.2-.44.34-.61a1.68 1.68 0 0 1 1.31-.55Zm5.15.38v-.7a6.12 6.12 0 0 1 .22-1.49c.07-.24.17-.44.3-.63.14-.18.3-.32.5-.44.2-.1.45-.16.73-.16.3 0 .54.06.73.16.2.12.37.26.5.44.14.18.24.4.3.63a6.34 6.34 0 0 1 .22 1.5v.69c0 .32 0 .67-.02 1.07s-.09.77-.2 1.12c-.1.35-.28.64-.52.88s-.57.36-1 .36c-.44 0-.78-.12-1.01-.36a2.12 2.12 0 0 1-.53-.88c-.1-.35-.17-.72-.19-1.12l-.03-1.07Zm-1.08.01.03.97c.01.34.05.67.12.99.06.32.15.62.27.9a2.24 2.24 0 0 0 1.28 1.26c.32.13.7.19 1.13.19.45 0 .83-.06 1.14-.19a2.24 2.24 0 0 0 1.27-1.26c.13-.28.22-.58.28-.9.06-.32.1-.65.12-.99a20.95 20.95 0 0 0 0-1.94 6.28 6.28 0 0 0-.4-1.9 2.36 2.36 0 0 0-.48-.75 2.3 2.3 0 0 0-.8-.52c-.3-.13-.68-.2-1.13-.2-.44 0-.81.07-1.13.2-.31.13-.58.3-.79.52-.2.21-.37.46-.49.75a6.78 6.78 0 0 0-.4 1.9l-.02.97Zm8.08-.01v-.7a6.12 6.12 0 0 1 .22-1.49c.07-.24.17-.44.3-.63.14-.18.3-.32.5-.44.2-.1.45-.16.73-.16.3 0 .54.06.73.16.2.12.37.26.5.44.14.18.24.4.3.63a6.34 6.34 0 0 1 .22 1.5v.69c0 .32 0 .67-.02 1.07s-.09.77-.2 1.12c-.1.35-.28.64-.52.88s-.57.36-1 .36c-.44 0-.78-.12-1.01-.36a2.12 2.12 0 0 1-.53-.88c-.1-.35-.17-.72-.19-1.12l-.03-1.07Zm-1.08.01.03.97c.01.34.05.67.12.99.06.32.15.62.27.9a2.24 2.24 0 0 0 1.28 1.26c.32.13.7.19 1.13.19.45 0 .83-.06 1.14-.19a2.24 2.24 0 0 0 1.27-1.26c.13-.28.22-.58.28-.9.06-.32.1-.65.12-.99a20.95 20.95 0 0 0 0-1.94 6.28 6.28 0 0 0-.4-1.9 2.36 2.36 0 0 0-.48-.75 2.3 2.3 0 0 0-.8-.52c-.3-.13-.68-.2-1.13-.2-.44 0-.81.07-1.13.2-.31.13-.58.3-.79.52-.2.21-.37.46-.49.75a6.78 6.78 0 0 0-.4 1.9l-.02.97ZM831.07 571.84v-8.51h-.78a1.69 1.69 0 0 1-.87 1.29c-.22.11-.46.2-.74.24-.27.04-.55.07-.84.07v.8h2.21v6.1Zm8.84-7.5v-.87h-5.5v.96h4.45a13.7 13.7 0 0 0-2.27 3.33 12.1 12.1 0 0 0-1.09 4.08h1.14c.04-.67.16-1.35.34-2.05a13.6 13.6 0 0 1 1.72-3.93c.37-.58.78-1.09 1.21-1.51Zm2.48 3.3v-.68a6.12 6.12 0 0 1 .22-1.5c.07-.24.16-.44.3-.63.13-.18.3-.32.5-.44.2-.1.44-.16.73-.16s.53.06.73.16c.2.12.36.26.5.44.13.18.23.4.3.63a6.34 6.34 0 0 1 .21 1.5l.01.69-.03 1.07c-.02.4-.09.77-.2 1.12-.1.35-.27.64-.52.88-.23.24-.57.36-1 .36-.44 0-.77-.12-1.01-.36a2.12 2.12 0 0 1-.52-.88c-.11-.35-.18-.72-.2-1.12-.02-.4-.02-.75-.02-1.07Zm-1.09.02.03.97c.01.34.06.67.12.99.06.32.16.62.28.9.11.28.28.53.48.75.22.22.48.39.8.51.31.13.69.19 1.13.19.45 0 .82-.06 1.14-.19a2.24 2.24 0 0 0 1.27-1.26 6.78 6.78 0 0 0 .4-1.9 20.95 20.95 0 0 0 0-1.93 6.28 6.28 0 0 0-.4-1.9 2.36 2.36 0 0 0-.5-.75 2.3 2.3 0 0 0-.78-.52c-.32-.13-.7-.2-1.13-.2-.44 0-.82.07-1.14.2-.31.13-.57.3-.79.52-.2.21-.37.46-.48.75-.12.3-.22.6-.28.91-.06.32-.1.65-.12.99l-.03.97Zm8.09-.01v-.7a6.12 6.12 0 0 1 .22-1.49c.07-.24.16-.44.3-.63.13-.18.3-.32.5-.44.2-.1.44-.16.73-.16s.53.06.73.16c.2.12.36.26.5.44.13.18.23.4.3.63a6.34 6.34 0 0 1 .21 1.5l.01.69-.03 1.07c-.02.4-.09.77-.2 1.12-.1.35-.27.64-.52.88-.23.24-.57.36-1 .36-.44 0-.77-.12-1.01-.36a2.12 2.12 0 0 1-.52-.88c-.11-.35-.18-.72-.2-1.12-.02-.4-.02-.75-.02-1.07Zm-1.09.01.03.97c.01.34.06.67.12.99.06.32.16.62.28.9.11.28.28.53.48.75.22.22.48.39.8.51.31.13.69.19 1.13.19.45 0 .82-.06 1.14-.19a2.24 2.24 0 0 0 1.27-1.26 6.78 6.78 0 0 0 .4-1.9 20.95 20.95 0 0 0 0-1.93 6.28 6.28 0 0 0-.4-1.9 2.36 2.36 0 0 0-.5-.75 2.3 2.3 0 0 0-.78-.52c-.32-.13-.7-.2-1.13-.2-.44 0-.82.07-1.14.2-.31.13-.57.3-.79.52-.2.21-.37.46-.48.75-.12.3-.22.6-.28.91-.06.32-.1.65-.12.99l-.03.97ZM880.47 571.84v-8.51h-.78a1.69 1.69 0 0 1-.87 1.29c-.22.11-.46.2-.74.24-.27.04-.55.07-.84.07v.8h2.21v6.1Zm4.59-6.3a1.22 1.22 0 0 1 .44-.98c.13-.1.29-.2.47-.25a2 2 0 0 1 .58-.08c.41 0 .75.11 1.02.33.27.22.4.55.4.98 0 .43-.13.76-.4 1-.25.25-.59.36-1 .36-.2 0-.4-.02-.59-.08a1.35 1.35 0 0 1-.48-.25c-.13-.11-.24-.26-.32-.43a1.38 1.38 0 0 1-.12-.6Zm-1.08-.04c0 .38.1.74.32 1.06.22.33.5.56.87.7-.48.17-.85.44-1.1.81a2.7 2.7 0 0 0-.16 2.45c.14.33.34.6.6.81.26.22.57.38.92.48a3.97 3.97 0 0 0 2.25 0 2.4 2.4 0 0 0 1.71-2.41c0-.54-.12-.99-.37-1.35a2.08 2.08 0 0 0-1.14-.78 2 2 0 0 0 .86-.72c.2-.32.31-.67.31-1.05 0-.27-.04-.54-.14-.8s-.25-.49-.45-.7c-.2-.2-.47-.36-.8-.48a3.35 3.35 0 0 0-2.12-.05c-.3.1-.57.24-.8.42-.24.18-.42.41-.56.68-.13.27-.2.58-.2.93Zm.78 3.94a1.55 1.55 0 0 1 1.1-1.52c.22-.08.45-.12.7-.12a1.88 1.88 0 0 1 1.24.47 1.55 1.55 0 0 1 .51 1.16 1.64 1.64 0 0 1-.49 1.18 1.85 1.85 0 0 1-1.25.47c-.53 0-.96-.15-1.3-.44a1.5 1.5 0 0 1-.51-1.2Zm7.03-1.8v-.68a6.12 6.12 0 0 1 .21-1.5c.07-.24.17-.44.3-.63.14-.18.3-.32.5-.44.2-.1.45-.16.74-.16.28 0 .53.06.73.16.2.12.36.26.5.44.13.18.23.4.3.63a6.34 6.34 0 0 1 .21 1.5v.69c0 .32 0 .67-.02 1.07s-.09.77-.2 1.12c-.1.35-.27.64-.52.88-.24.24-.57.36-1 .36-.44 0-.77-.12-1.01-.36a2.12 2.12 0 0 1-.53-.88c-.1-.35-.17-.72-.19-1.12-.02-.4-.02-.75-.02-1.07Zm-1.09.02.03.97c.01.34.06.67.12.99.06.32.15.62.27.9a2.24 2.24 0 0 0 1.28 1.26c.32.13.7.19 1.14.19.44 0 .82-.06 1.14-.19a2.24 2.24 0 0 0 1.27-1.26 6.78 6.78 0 0 0 .4-1.9 20.95 20.95 0 0 0 0-1.93 6.28 6.28 0 0 0-.4-1.9 2.36 2.36 0 0 0-.5-.75 2.3 2.3 0 0 0-.78-.52c-.32-.13-.7-.2-1.13-.2-.45 0-.82.07-1.14.2-.31.13-.58.3-.79.52-.2.21-.37.46-.49.75a6.78 6.78 0 0 0-.4 1.9l-.02.97Zm8.09-.01v-.7a6.12 6.12 0 0 1 .21-1.49c.07-.24.17-.44.3-.63.14-.18.3-.32.5-.44.2-.1.45-.16.74-.16.28 0 .53.06.73.16.2.12.36.26.5.44.13.18.23.4.3.63a6.34 6.34 0 0 1 .21 1.5v.69c0 .32 0 .67-.02 1.07s-.09.77-.2 1.12c-.1.35-.27.64-.52.88-.24.24-.57.36-1 .36-.44 0-.77-.12-1.01-.36a2.12 2.12 0 0 1-.53-.88c-.1-.35-.17-.72-.19-1.12-.02-.4-.02-.75-.02-1.07Zm-1.09.01.03.97c.01.34.06.67.12.99.06.32.15.62.27.9a2.24 2.24 0 0 0 1.28 1.26c.32.13.7.19 1.14.19.44 0 .82-.06 1.14-.19a2.24 2.24 0 0 0 1.27-1.26 6.78 6.78 0 0 0 .4-1.9 20.95 20.95 0 0 0 0-1.93 6.28 6.28 0 0 0-.4-1.9 2.36 2.36 0 0 0-.5-.75 2.3 2.3 0 0 0-.78-.52c-.32-.13-.7-.2-1.13-.2-.45 0-.82.07-1.14.2-.31.13-.58.3-.79.52-.2.21-.37.46-.49.75a6.78 6.78 0 0 0-.4 1.9l-.02.97ZM929.88 571.84v-8.51h-.79c-.05.32-.16.58-.3.8-.16.2-.34.36-.57.48-.22.12-.46.2-.74.25-.27.04-.55.07-.84.07v.8h2.22v6.1Zm4.33-2.05h-1.02c.06.73.33 1.28.8 1.64.47.36 1.07.54 1.78.54 1.03 0 1.78-.4 2.25-1.18.47-.8.7-1.92.7-3.4 0-.8-.08-1.47-.23-2a3.37 3.37 0 0 0-.63-1.23c-.27-.3-.57-.52-.93-.64a3.34 3.34 0 0 0-2.25.01 2.53 2.53 0 0 0-1.46 1.45c-.14.34-.21.71-.21 1.12 0 .42.06.8.17 1.15.12.35.3.65.52.9.23.25.51.44.85.58.33.14.72.22 1.15.22.41 0 .8-.11 1.15-.33.35-.2.62-.5.81-.85l.03.02a5.45 5.45 0 0 1-.52 2.48c-.31.54-.78.8-1.4.8-.4 0-.76-.1-1.06-.33-.3-.22-.46-.54-.5-.95Zm3.3-3.62c0 .25-.04.49-.12.72a1.67 1.67 0 0 1-2.83.6 1.92 1.92 0 0 1-.47-1.25c0-.26.03-.51.09-.75s.16-.45.29-.64c.13-.19.3-.34.51-.46.22-.1.47-.16.78-.16a1.6 1.6 0 0 1 1.3.58c.15.18.26.39.33.62.08.23.12.48.12.74Zm3.68 1.48v-.7a6.12 6.12 0 0 1 .22-1.49c.07-.24.16-.44.3-.63.13-.18.3-.32.5-.44.2-.1.44-.16.73-.16s.53.06.73.16c.2.12.37.26.5.44s.23.4.3.63a6.34 6.34 0 0 1 .21 1.5l.01.69-.03 1.07c-.02.4-.09.77-.2 1.12-.1.35-.27.64-.51.88s-.58.36-1.01.36c-.44 0-.77-.12-1.01-.36a2.12 2.12 0 0 1-.52-.88c-.1-.35-.18-.72-.2-1.12l-.02-1.07Zm-1.08.01c0 .31 0 .64.02.97.01.34.06.67.12.99.06.32.16.62.28.9a2.24 2.24 0 0 0 1.28 1.26c.31.13.69.19 1.13.19.45 0 .83-.06 1.14-.19a2.24 2.24 0 0 0 1.27-1.26 6.78 6.78 0 0 0 .4-1.9 20.95 20.95 0 0 0 0-1.93 6.28 6.28 0 0 0-.4-1.9 2.36 2.36 0 0 0-.5-.75 2.3 2.3 0 0 0-.78-.52c-.32-.13-.7-.2-1.13-.2-.44 0-.82.07-1.14.2-.31.13-.57.3-.78.52-.21.21-.38.46-.5.75a6.78 6.78 0 0 0-.4 1.9l-.01.97Zm8.08-.01v-.7a6.12 6.12 0 0 1 .22-1.49c.07-.24.16-.44.3-.63.13-.18.3-.32.5-.44.2-.1.44-.16.73-.16s.53.06.73.16c.2.12.37.26.5.44s.23.4.3.63a6.34 6.34 0 0 1 .21 1.5l.01.69-.03 1.07c-.02.4-.09.77-.2 1.12-.1.35-.27.64-.51.88s-.58.36-1.01.36c-.44 0-.77-.12-1.01-.36a2.12 2.12 0 0 1-.52-.88c-.1-.35-.18-.72-.2-1.12l-.02-1.07Zm-1.08.01c0 .31 0 .64.02.97.01.34.06.67.12.99.06.32.16.62.28.9a2.24 2.24 0 0 0 1.28 1.26c.31.13.69.19 1.13.19.45 0 .83-.06 1.14-.19a2.24 2.24 0 0 0 1.27-1.26 6.78 6.78 0 0 0 .4-1.9 20.95 20.95 0 0 0 0-1.93 6.28 6.28 0 0 0-.4-1.9 2.36 2.36 0 0 0-.5-.75 2.3 2.3 0 0 0-.78-.52c-.32-.13-.7-.2-1.13-.2-.44 0-.82.07-1.14.2-.31.13-.57.3-.78.52-.21.21-.38.46-.5.75a6.78 6.78 0 0 0-.4 1.9l-.01.97ZM975.53 566.34h1.02c-.01-.26.02-.51.08-.76.06-.26.16-.48.3-.68a1.47 1.47 0 0 1 1.28-.67c.22 0 .43.04.63.1a1.5 1.5 0 0 1 1 1.44c0 .29-.04.55-.13.77-.1.23-.23.44-.4.63-.19.19-.42.38-.68.57l-.95.62c-.3.17-.58.36-.86.56a3.85 3.85 0 0 0-1.26 1.63c-.14.35-.23.78-.27 1.29h5.55v-.9h-4.36c.04-.27.14-.5.3-.7.16-.2.35-.4.57-.58.22-.17.46-.34.72-.5l.8-.47c.26-.17.51-.34.76-.53.25-.18.47-.39.66-.61a2.64 2.64 0 0 0 .64-1.77c0-.4-.07-.76-.21-1.06a2.2 2.2 0 0 0-.57-.76 2.6 2.6 0 0 0-.85-.47 3.32 3.32 0 0 0-2.24.06 2.42 2.42 0 0 0-1.4 1.6c-.11.36-.16.76-.13 1.19Zm8.06 1.3v-.68a6.12 6.12 0 0 1 .21-1.5c.08-.24.17-.44.3-.63.14-.18.3-.32.5-.44.2-.1.45-.16.74-.16.28 0 .53.06.73.16.2.12.36.26.5.44.13.18.23.4.3.63a6.34 6.34 0 0 1 .21 1.5l.01.69-.03 1.07c-.02.4-.09.77-.2 1.12-.1.35-.27.64-.52.88-.23.24-.57.36-1 .36-.44 0-.77-.12-1.01-.36a2.12 2.12 0 0 1-.53-.88c-.1-.35-.17-.72-.19-1.12-.02-.4-.02-.75-.02-1.07Zm-1.09.02.03.97c.01.34.06.67.12.99.06.32.15.62.28.9.11.28.28.53.48.75.22.22.48.39.8.51.31.13.68.19 1.13.19.45 0 .82-.06 1.14-.19a2.24 2.24 0 0 0 1.27-1.26 6.78 6.78 0 0 0 .4-1.9 20.95 20.95 0 0 0 0-1.93 6.28 6.28 0 0 0-.4-1.9 2.36 2.36 0 0 0-.5-.75 2.3 2.3 0 0 0-.78-.52c-.32-.13-.7-.2-1.13-.2-.45 0-.82.07-1.14.2-.31.13-.58.3-.79.52-.2.21-.37.46-.48.75-.13.3-.22.6-.28.91-.06.32-.1.65-.12.99l-.03.97Zm8.09-.01v-.7a6.12 6.12 0 0 1 .21-1.49c.08-.24.17-.44.3-.63.14-.18.3-.32.5-.44.2-.1.45-.16.74-.16.28 0 .53.06.73.16.2.12.36.26.5.44.13.18.23.4.3.63a6.34 6.34 0 0 1 .21 1.5l.01.69-.03 1.07c-.02.4-.09.77-.2 1.12-.1.35-.27.64-.52.88-.23.24-.57.36-1 .36-.44 0-.77-.12-1.01-.36a2.12 2.12 0 0 1-.53-.88c-.1-.35-.17-.72-.19-1.12-.02-.4-.02-.75-.02-1.07Zm-1.09.01.03.97c.01.34.06.67.12.99.06.32.15.62.28.9.11.28.28.53.48.75.22.22.48.39.8.51.31.13.68.19 1.13.19.45 0 .82-.06 1.14-.19a2.24 2.24 0 0 0 1.27-1.26 6.78 6.78 0 0 0 .4-1.9 20.95 20.95 0 0 0 0-1.93 6.28 6.28 0 0 0-.4-1.9 2.36 2.36 0 0 0-.5-.75 2.3 2.3 0 0 0-.78-.52c-.32-.13-.7-.2-1.13-.2-.45 0-.82.07-1.14.2-.31.13-.58.3-.79.52-.2.21-.37.46-.48.75-.13.3-.22.6-.28.91-.06.32-.1.65-.12.99l-.03.97Zm8.09-.01v-.7a6.12 6.12 0 0 1 .21-1.49c.08-.24.17-.44.3-.63.14-.18.3-.32.5-.44.2-.1.45-.16.74-.16.28 0 .53.06.73.16.2.12.36.26.5.44.13.18.23.4.3.63a6.34 6.34 0 0 1 .21 1.5l.01.69-.03 1.07c-.02.4-.09.77-.2 1.12-.1.35-.27.64-.52.88-.23.24-.57.36-1 .36-.44 0-.77-.12-1.01-.36a2.12 2.12 0 0 1-.53-.88c-.1-.35-.17-.72-.19-1.12-.02-.4-.02-.75-.02-1.07Zm-1.09.01.03.97c.01.34.06.67.12.99.06.32.15.62.28.9.11.28.28.53.48.75.22.22.48.39.8.51.31.13.68.19 1.13.19.45 0 .82-.06 1.14-.19a2.24 2.24 0 0 0 1.27-1.26 6.78 6.78 0 0 0 .4-1.9 20.95 20.95 0 0 0 0-1.93 6.28 6.28 0 0 0-.4-1.9 2.36 2.36 0 0 0-.5-.75 2.3 2.3 0 0 0-.78-.52c-.32-.13-.7-.2-1.13-.2-.45 0-.82.07-1.14.2-.31.13-.58.3-.79.52-.2.21-.37.46-.48.75-.13.3-.22.6-.28.91-.06.32-.1.65-.12.99l-.03.97ZM1024.93 566.34h1.02c-.01-.26.01-.51.07-.76.07-.26.16-.48.3-.68a1.47 1.47 0 0 1 1.28-.67c.22 0 .44.04.64.1a1.5 1.5 0 0 1 1 1.44c0 .29-.04.55-.13.77-.1.23-.23.44-.41.63-.18.19-.4.38-.68.57-.27.19-.59.4-.95.62-.3.17-.57.36-.85.56a3.85 3.85 0 0 0-1.26 1.63c-.14.35-.23.78-.27 1.29h5.55v-.9h-4.37c.05-.27.15-.5.31-.7.16-.2.34-.4.57-.58.21-.17.46-.34.72-.5l.8-.47c.26-.17.51-.34.76-.53.25-.18.47-.39.66-.61a2.64 2.64 0 0 0 .64-1.77c0-.4-.07-.76-.21-1.06a2.2 2.2 0 0 0-.57-.76 2.6 2.6 0 0 0-.85-.47 3.32 3.32 0 0 0-2.24.06 2.42 2.42 0 0 0-1.4 1.6c-.11.36-.16.76-.13 1.19Zm10.74 5.5v-8.51h-.78a1.69 1.69 0 0 1-.87 1.29c-.22.11-.47.2-.74.24-.27.04-.55.07-.84.07v.8h2.21v6.1Zm4.31-4.2v-.68a6.12 6.12 0 0 1 .22-1.5c.07-.24.17-.44.3-.63.14-.18.3-.32.5-.44.2-.1.45-.16.73-.16.3 0 .54.06.73.16.2.12.37.26.5.44.14.18.24.4.3.63a6.34 6.34 0 0 1 .22 1.5v.69c0 .32 0 .67-.02 1.07s-.09.77-.2 1.12c-.1.35-.28.64-.52.88s-.57.36-1 .36c-.44 0-.78-.12-1.01-.36a2.12 2.12 0 0 1-.53-.88c-.1-.35-.17-.72-.19-1.12l-.03-1.07Zm-1.08.02.03.97c.01.34.05.67.12.99.06.32.15.62.27.9a2.24 2.24 0 0 0 1.28 1.26c.32.13.7.19 1.13.19.45 0 .83-.06 1.14-.19a2.24 2.24 0 0 0 1.27-1.26c.13-.28.22-.58.28-.9.06-.32.1-.65.12-.99a20.95 20.95 0 0 0 0-1.94 6.28 6.28 0 0 0-.4-1.9 2.36 2.36 0 0 0-.48-.75 2.3 2.3 0 0 0-.8-.52c-.3-.13-.68-.2-1.13-.2-.44 0-.81.07-1.13.2-.31.13-.58.3-.79.52-.2.21-.37.46-.49.75a6.78 6.78 0 0 0-.4 1.9l-.02.97Zm8.08-.01v-.7a6.12 6.12 0 0 1 .22-1.49c.07-.24.17-.44.3-.63.14-.18.3-.32.5-.44.2-.1.45-.16.73-.16.3 0 .54.06.73.16.2.12.37.26.5.44.14.18.24.4.3.63a6.34 6.34 0 0 1 .22 1.5v.69c0 .32 0 .67-.02 1.07s-.09.77-.2 1.12c-.1.35-.28.64-.52.88s-.57.36-1 .36c-.44 0-.78-.12-1.01-.36a2.12 2.12 0 0 1-.53-.88c-.1-.35-.17-.72-.19-1.12l-.03-1.07Zm-1.08.01.03.97c.01.34.05.67.12.99.06.32.15.62.27.9a2.24 2.24 0 0 0 1.28 1.26c.32.13.7.19 1.13.19.45 0 .83-.06 1.14-.19a2.24 2.24 0 0 0 1.27-1.26c.13-.28.22-.58.28-.9.06-.32.1-.65.12-.99a20.95 20.95 0 0 0 0-1.94 6.28 6.28 0 0 0-.4-1.9 2.36 2.36 0 0 0-.48-.75 2.3 2.3 0 0 0-.8-.52c-.3-.13-.68-.2-1.13-.2-.44 0-.81.07-1.13.2-.31.13-.58.3-.79.52-.2.21-.37.46-.49.75a6.78 6.78 0 0 0-.4 1.9l-.02.97ZM1074.33 566.34h1.02c-.01-.26.02-.51.08-.76.06-.26.16-.48.3-.68.13-.2.3-.36.51-.49.21-.12.47-.18.76-.18.23 0 .44.04.64.1a1.5 1.5 0 0 1 1 1.44c0 .29-.04.55-.13.77-.1.23-.23.44-.4.63-.19.19-.41.38-.68.57l-.95.62c-.3.17-.58.36-.86.56a3.85 3.85 0 0 0-1.26 1.63c-.14.35-.23.78-.27 1.29h5.55v-.9h-4.36c.04-.27.15-.5.3-.7.16-.2.35-.4.57-.58.22-.17.46-.34.72-.5l.8-.47c.26-.17.51-.34.76-.53.25-.18.47-.39.66-.61a2.64 2.64 0 0 0 .64-1.77c0-.4-.07-.76-.21-1.06a2.2 2.2 0 0 0-.57-.76 2.6 2.6 0 0 0-.85-.47 3.32 3.32 0 0 0-2.24.06 2.42 2.42 0 0 0-1.4 1.6c-.11.36-.16.76-.13 1.19Zm7 0h1.02c-.01-.26.02-.51.08-.76.06-.26.16-.48.3-.68.13-.2.3-.36.51-.49.21-.12.47-.18.76-.18.23 0 .44.04.64.1a1.5 1.5 0 0 1 1 1.44c0 .29-.04.55-.13.77-.1.23-.23.44-.4.63-.19.19-.41.38-.68.57l-.95.62c-.3.17-.58.36-.86.56a3.85 3.85 0 0 0-1.26 1.63c-.14.35-.23.78-.27 1.29h5.55v-.9h-4.36c.04-.27.15-.5.3-.7.16-.2.35-.4.57-.58.22-.17.46-.34.72-.5l.8-.47c.26-.17.51-.34.76-.53.25-.18.47-.39.66-.61a2.64 2.64 0 0 0 .64-1.77c0-.4-.07-.76-.21-1.06a2.2 2.2 0 0 0-.57-.76 2.6 2.6 0 0 0-.85-.47 3.32 3.32 0 0 0-2.24.06 2.42 2.42 0 0 0-1.4 1.6c-.11.36-.16.76-.13 1.19Zm8.06 1.3v-.68a6.12 6.12 0 0 1 .22-1.5c.07-.24.16-.44.3-.63.13-.18.3-.32.5-.44.2-.1.44-.16.73-.16s.53.06.73.16c.2.12.36.26.5.44.13.18.23.4.3.63a6.34 6.34 0 0 1 .21 1.5l.01.69-.03 1.07c-.02.4-.09.77-.2 1.12-.1.35-.27.64-.52.88-.23.24-.57.36-1 .36-.44 0-.77-.12-1.01-.36a2.12 2.12 0 0 1-.52-.88c-.11-.35-.18-.72-.2-1.12-.02-.4-.02-.75-.02-1.07Zm-1.09.02.03.97c.01.34.06.67.12.99.06.32.16.62.28.9.11.28.28.53.48.75.22.22.48.39.8.51.31.13.69.19 1.13.19.45 0 .82-.06 1.14-.19a2.24 2.24 0 0 0 1.27-1.26 6.78 6.78 0 0 0 .4-1.9 20.95 20.95 0 0 0 0-1.93 6.28 6.28 0 0 0-.4-1.9 2.36 2.36 0 0 0-.5-.75 2.3 2.3 0 0 0-.78-.52c-.32-.13-.7-.2-1.13-.2-.44 0-.82.07-1.14.2-.31.13-.57.3-.79.52-.2.21-.37.46-.48.75-.12.3-.22.6-.28.91-.06.32-.1.65-.12.99l-.03.97Zm8.09-.01v-.7a6.12 6.12 0 0 1 .22-1.49c.07-.24.16-.44.3-.63.13-.18.3-.32.5-.44.2-.1.44-.16.73-.16s.53.06.73.16c.2.12.36.26.5.44.13.18.23.4.3.63a6.34 6.34 0 0 1 .21 1.5l.01.69-.03 1.07c-.02.4-.09.77-.2 1.12-.1.35-.27.64-.52.88-.23.24-.57.36-1 .36-.44 0-.77-.12-1.01-.36a2.12 2.12 0 0 1-.52-.88c-.11-.35-.18-.72-.2-1.12-.02-.4-.02-.75-.02-1.07Zm-1.09.01.03.97c.01.34.06.67.12.99.06.32.16.62.28.9.11.28.28.53.48.75.22.22.48.39.8.51.31.13.69.19 1.13.19.45 0 .82-.06 1.14-.19a2.24 2.24 0 0 0 1.27-1.26 6.78 6.78 0 0 0 .4-1.9 20.95 20.95 0 0 0 0-1.93 6.28 6.28 0 0 0-.4-1.9 2.36 2.36 0 0 0-.5-.75 2.3 2.3 0 0 0-.78-.52c-.32-.13-.7-.2-1.13-.2-.44 0-.82.07-1.14.2-.31.13-.57.3-.79.52-.2.21-.37.46-.48.75-.12.3-.22.6-.28.91-.06.32-.1.65-.12.99l-.03.97ZM1123.73 566.34h1.02c-.01-.26.02-.51.07-.76.07-.26.16-.48.3-.68a1.47 1.47 0 0 1 1.28-.67c.22 0 .44.04.64.1a1.5 1.5 0 0 1 1 1.44c0 .29-.04.55-.13.77-.1.23-.23.44-.41.63-.18.19-.4.38-.68.57l-.94.62c-.3.17-.58.36-.86.56a3.85 3.85 0 0 0-1.26 1.63c-.14.35-.23.78-.27 1.29h5.55v-.9h-4.36c.04-.27.14-.5.3-.7.16-.2.34-.4.57-.58.22-.17.46-.34.72-.5l.8-.47c.26-.17.51-.34.76-.53.25-.18.47-.39.66-.61a2.64 2.64 0 0 0 .64-1.77c0-.4-.07-.76-.21-1.06a2.2 2.2 0 0 0-.57-.76 2.6 2.6 0 0 0-.85-.47 3.32 3.32 0 0 0-2.24.06 2.42 2.42 0 0 0-1.4 1.6c-.11.36-.16.76-.13 1.19Zm9.09.64v.86c.19-.02.4-.04.6-.04.26 0 .5.04.72.1a1.53 1.53 0 0 1 1.1 1.54c0 .25-.05.48-.15.68-.1.2-.23.38-.4.52s-.37.25-.6.32c-.21.08-.45.12-.7.12-.58 0-1.03-.17-1.33-.52-.3-.35-.47-.8-.48-1.35h-1.02c0 .44.05.83.19 1.17a2.32 2.32 0 0 0 1.46 1.4 3.82 3.82 0 0 0 2.3.02 2.4 2.4 0 0 0 1.8-2.42c.01-.5-.12-.95-.37-1.33a1.78 1.78 0 0 0-1.15-.73v-.02c.33-.15.6-.37.84-.67.22-.3.33-.64.33-1.02 0-.4-.07-.74-.2-1.02a1.92 1.92 0 0 0-.55-.71c-.23-.18-.5-.32-.82-.42a3.75 3.75 0 0 0-1.02-.13c-.43 0-.8.06-1.12.2a2.25 2.25 0 0 0-1.31 1.43c-.12.34-.19.7-.2 1.11h1.02c0-.24.03-.48.1-.7.06-.23.16-.42.29-.59.13-.17.3-.3.5-.4.2-.1.44-.15.72-.15.43 0 .79.11 1.08.34.28.23.43.57.43 1.03a1.3 1.3 0 0 1-.49 1.03c-.14.12-.32.21-.51.27-.2.06-.4.09-.62.09H1132.92l-.1-.01Zm5.97.67v-.7a6.12 6.12 0 0 1 .21-1.49c.07-.24.17-.44.3-.63.14-.18.3-.32.5-.44.2-.1.45-.16.74-.16.28 0 .53.06.73.16.2.12.36.26.5.44.13.18.23.4.3.63a6.34 6.34 0 0 1 .21 1.5v.69c0 .32 0 .67-.02 1.07s-.09.77-.2 1.12c-.1.35-.27.64-.52.88-.24.24-.57.36-1 .36-.44 0-.77-.12-1.01-.36a2.12 2.12 0 0 1-.53-.88c-.1-.35-.17-.72-.19-1.12-.02-.4-.02-.75-.02-1.07Zm-1.09.01.03.97c.01.34.06.67.12.99.06.32.15.62.28.9.11.28.28.53.48.75.21.22.48.39.8.51.3.13.68.19 1.13.19.44 0 .82-.06 1.14-.19a2.24 2.24 0 0 0 1.27-1.26 6.78 6.78 0 0 0 .4-1.9 20.95 20.95 0 0 0 0-1.93 6.28 6.28 0 0 0-.4-1.9 2.36 2.36 0 0 0-.5-.75 2.3 2.3 0 0 0-.78-.52c-.32-.13-.7-.2-1.13-.2-.45 0-.82.07-1.14.2-.31.13-.58.3-.79.52-.2.21-.37.46-.48.75-.13.3-.22.6-.28.91-.06.32-.1.65-.12.99l-.03.97Zm8.09-.01v-.7a6.12 6.12 0 0 1 .21-1.49c.07-.24.17-.44.3-.63.14-.18.3-.32.5-.44.2-.1.45-.16.74-.16.28 0 .53.06.73.16.2.12.36.26.5.44.13.18.23.4.3.63a6.34 6.34 0 0 1 .21 1.5v.69c0 .32 0 .67-.02 1.07s-.09.77-.2 1.12c-.1.35-.27.64-.52.88-.24.24-.57.36-1 .36-.44 0-.77-.12-1.01-.36a2.12 2.12 0 0 1-.53-.88c-.1-.35-.17-.72-.19-1.12-.02-.4-.02-.75-.02-1.07Zm-1.09.01.03.97c.01.34.06.67.12.99.06.32.15.62.28.9.11.28.28.53.48.75.21.22.48.39.8.51.3.13.68.19 1.13.19.44 0 .82-.06 1.14-.19a2.24 2.24 0 0 0 1.27-1.26 6.78 6.78 0 0 0 .4-1.9 20.95 20.95 0 0 0 0-1.93 6.28 6.28 0 0 0-.4-1.9 2.36 2.36 0 0 0-.5-.75 2.3 2.3 0 0 0-.78-.52c-.32-.13-.7-.2-1.13-.2-.45 0-.82.07-1.14.2-.31.13-.58.3-.79.52-.2.21-.37.46-.48.75-.13.3-.22.6-.28.91-.06.32-.1.65-.12.99l-.03.97ZM1173.13 566.34h1.02c0-.26.02-.51.08-.76.06-.26.16-.48.3-.68.13-.2.3-.36.51-.49.21-.12.47-.18.76-.18.23 0 .44.04.64.1a1.5 1.5 0 0 1 1 1.44c0 .29-.04.55-.13.77-.1.23-.23.44-.4.63-.19.19-.41.38-.68.57l-.95.62c-.3.17-.58.36-.85.56a3.85 3.85 0 0 0-1.27 1.63c-.14.35-.23.78-.27 1.29h5.56v-.9h-4.37c.05-.27.15-.5.3-.7.16-.2.35-.4.57-.58.22-.17.46-.34.72-.5l.8-.47c.26-.17.51-.34.76-.53.25-.18.47-.39.66-.61a2.64 2.64 0 0 0 .64-1.77c0-.4-.07-.76-.21-1.06a2.2 2.2 0 0 0-.57-.76 2.6 2.6 0 0 0-.85-.47 3.32 3.32 0 0 0-2.24.06 2.42 2.42 0 0 0-1.4 1.6c-.11.36-.15.76-.13 1.19Zm10.54 2.6h-2.86l2.83-4.16h.03Zm.96 0v-5.61h-.82l-3.87 5.53v.98h3.73v2h.96v-2h1.15v-.9Zm3.56-1.3v-.68a6.12 6.12 0 0 1 .22-1.5c.07-.24.16-.44.3-.63.13-.18.3-.32.5-.44.2-.1.44-.16.73-.16s.53.06.73.16c.2.12.37.26.5.44s.23.4.3.63a6.34 6.34 0 0 1 .21 1.5l.01.69-.03 1.07c-.02.4-.09.77-.2 1.12-.1.35-.27.64-.51.88s-.58.36-1.01.36c-.44 0-.77-.12-1.01-.36a2.12 2.12 0 0 1-.52-.88c-.1-.35-.18-.72-.2-1.12l-.02-1.07Zm-1.08.02c0 .31 0 .64.02.97.01.34.06.67.12.99.06.32.16.62.28.9a2.24 2.24 0 0 0 1.28 1.26c.31.13.69.19 1.13.19.45 0 .83-.06 1.14-.19a2.24 2.24 0 0 0 1.27-1.26c.12-.28.21-.58.28-.9.06-.32.1-.65.12-.99a20.95 20.95 0 0 0 0-1.94 6.28 6.28 0 0 0-.4-1.9 2.36 2.36 0 0 0-.5-.75 2.3 2.3 0 0 0-.78-.52c-.32-.13-.7-.2-1.13-.2-.44 0-.82.07-1.14.2-.31.13-.57.3-.78.52-.21.21-.38.46-.5.75a6.78 6.78 0 0 0-.4 1.9l-.01.97Zm8.08-.01v-.7a6.12 6.12 0 0 1 .22-1.49c.07-.24.16-.44.3-.63.13-.18.3-.32.5-.44.2-.1.44-.16.73-.16s.53.06.73.16c.2.12.37.26.5.44s.23.4.3.63a6.34 6.34 0 0 1 .21 1.5l.01.69-.03 1.07c-.02.4-.09.77-.2 1.12-.1.35-.27.64-.51.88s-.58.36-1.01.36c-.44 0-.77-.12-1.01-.36a2.12 2.12 0 0 1-.52-.88c-.1-.35-.18-.72-.2-1.12l-.02-1.07Zm-1.08.01c0 .31 0 .64.02.97.01.34.06.67.12.99.06.32.16.62.28.9a2.24 2.24 0 0 0 1.28 1.26c.31.13.69.19 1.13.19.45 0 .83-.06 1.14-.19a2.24 2.24 0 0 0 1.27-1.26c.12-.28.21-.58.28-.9.06-.32.1-.65.12-.99a20.95 20.95 0 0 0 0-1.94 6.28 6.28 0 0 0-.4-1.9 2.36 2.36 0 0 0-.5-.75 2.3 2.3 0 0 0-.78-.52c-.32-.13-.7-.2-1.13-.2-.44 0-.82.07-1.14.2-.31.13-.57.3-.78.52-.21.21-.38.46-.5.75a6.78 6.78 0 0 0-.4 1.9l-.01.97ZM1222.53 566.34h1.02c-.01-.26.02-.51.08-.76.06-.26.16-.48.3-.68a1.47 1.47 0 0 1 1.28-.67c.22 0 .43.04.63.1a1.5 1.5 0 0 1 1 1.44c0 .29-.04.55-.13.77-.1.23-.23.44-.4.63-.19.19-.42.38-.68.57l-.95.62c-.3.17-.58.36-.86.56a3.85 3.85 0 0 0-1.26 1.63c-.14.35-.23.78-.27 1.29h5.55v-.9h-4.36c.04-.27.14-.5.3-.7.16-.2.35-.4.57-.58.22-.17.46-.34.72-.5l.8-.47c.26-.17.51-.34.76-.53.25-.18.47-.39.66-.61a2.64 2.64 0 0 0 .64-1.77c0-.4-.07-.76-.21-1.06a2.2 2.2 0 0 0-.57-.76 2.6 2.6 0 0 0-.85-.47 3.32 3.32 0 0 0-2.24.06 2.42 2.42 0 0 0-1.4 1.6c-.11.36-.16.76-.13 1.19Zm12.11-1.97v-.9h-4.2l-.8 4.42.88.05c.2-.24.43-.44.7-.58.25-.15.55-.23.89-.23.28 0 .55.05.78.15a1.75 1.75 0 0 1 1 1 2.43 2.43 0 0 1 0 1.66c-.1.26-.23.47-.4.63-.16.17-.35.3-.57.38a2 2 0 0 1-1.4.01 1.6 1.6 0 0 1-1.08-1.42h-1.02c.01.39.08.73.23 1.03.14.3.34.56.58.77.25.2.54.36.86.46.33.11.68.17 1.04.17.5 0 .93-.08 1.3-.24a2.63 2.63 0 0 0 1.49-1.54 3.44 3.44 0 0 0-.03-2.33 2.42 2.42 0 0 0-1.46-1.46c-.34-.1-.7-.17-1.07-.17-.29 0-.58.05-.87.15-.3.1-.53.26-.71.46l-.03-.02.46-2.45Zm2.95 3.28v-.7a6.12 6.12 0 0 1 .21-1.49c.08-.24.17-.44.3-.63.14-.18.3-.32.5-.44.2-.1.45-.16.74-.16s.53.06.73.16c.2.12.36.26.5.44.13.18.23.4.3.63a6.34 6.34 0 0 1 .21 1.5l.01.69-.03 1.07c-.02.4-.09.77-.2 1.12-.1.35-.27.64-.52.88-.23.24-.57.36-1 .36-.44 0-.77-.12-1.01-.36a2.12 2.12 0 0 1-.53-.88c-.1-.35-.17-.72-.19-1.12-.02-.4-.02-.75-.02-1.07Zm-1.09.01.03.97c.01.34.06.67.12.99.06.32.15.62.28.9.11.28.28.53.48.75.21.22.48.39.8.51.31.13.68.19 1.13.19.45 0 .82-.06 1.14-.19a2.24 2.24 0 0 0 1.27-1.26 6.78 6.78 0 0 0 .4-1.9 20.95 20.95 0 0 0 0-1.93 6.28 6.28 0 0 0-.4-1.9 2.36 2.36 0 0 0-.5-.75 2.3 2.3 0 0 0-.78-.52c-.32-.13-.7-.2-1.13-.2-.45 0-.82.07-1.14.2-.31.13-.58.3-.79.52-.2.21-.37.46-.48.75-.13.3-.22.6-.28.91-.06.32-.1.65-.12.99l-.03.97Zm8.09-.01v-.7a6.12 6.12 0 0 1 .21-1.49c.08-.24.17-.44.3-.63.14-.18.3-.32.5-.44.2-.1.45-.16.74-.16s.53.06.73.16c.2.12.36.26.5.44.13.18.23.4.3.63a6.34 6.34 0 0 1 .21 1.5l.01.69-.03 1.07c-.02.4-.09.77-.2 1.12-.1.35-.27.64-.52.88-.23.24-.57.36-1 .36-.44 0-.77-.12-1.01-.36a2.12 2.12 0 0 1-.53-.88c-.1-.35-.17-.72-.19-1.12-.02-.4-.02-.75-.02-1.07Zm-1.09.01.03.97c.01.34.06.67.12.99.06.32.15.62.28.9.11.28.28.53.48.75.21.22.48.39.8.51.31.13.68.19 1.13.19.45 0 .82-.06 1.14-.19a2.24 2.24 0 0 0 1.27-1.26 6.78 6.78 0 0 0 .4-1.9 20.95 20.95 0 0 0 0-1.93 6.28 6.28 0 0 0-.4-1.9 2.36 2.36 0 0 0-.5-.75 2.3 2.3 0 0 0-.78-.52c-.32-.13-.7-.2-1.13-.2-.45 0-.82.07-1.14.2-.31.13-.58.3-.79.52-.2.21-.37.46-.48.75-.13.3-.22.6-.28.91-.06.32-.1.65-.12.99l-.03.97ZM1271.93 566.34h1.02c-.01-.26.01-.51.07-.76.07-.26.16-.48.3-.68a1.47 1.47 0 0 1 1.28-.67c.22 0 .44.04.64.1a1.5 1.5 0 0 1 1 1.44c0 .29-.04.55-.13.77-.1.23-.23.44-.41.63-.18.19-.4.38-.68.57-.27.19-.59.4-.95.62-.3.17-.57.36-.85.56a3.85 3.85 0 0 0-1.26 1.63c-.14.35-.23.78-.27 1.29h5.55v-.9h-4.37c.05-.27.15-.5.31-.7.16-.2.34-.4.57-.58.21-.17.46-.34.72-.5l.8-.47c.26-.17.51-.34.76-.53.25-.18.47-.39.66-.61a2.64 2.64 0 0 0 .64-1.77c0-.4-.07-.76-.21-1.06a2.2 2.2 0 0 0-.57-.76 2.6 2.6 0 0 0-.85-.47 3.32 3.32 0 0 0-2.24.06 2.42 2.42 0 0 0-1.4 1.6c-.11.36-.16.76-.13 1.19Zm11.44-.84h1.02c-.07-.7-.3-1.24-.72-1.61a2.44 2.44 0 0 0-1.68-.56c-.61 0-1.12.13-1.52.38-.4.26-.72.6-.95 1.02-.25.43-.41.91-.52 1.46a9.28 9.28 0 0 0-.04 3.1c.06.47.2.9.41 1.31.2.4.5.73.89.98.38.26.9.39 1.52.39.54 0 .99-.1 1.35-.27a2.55 2.55 0 0 0 1.35-1.6 3.61 3.61 0 0 0-.03-2.07 2.66 2.66 0 0 0-.51-.87 2.3 2.3 0 0 0-.82-.59c-.32-.14-.69-.2-1.1-.2-.46 0-.87.08-1.23.26a2.2 2.2 0 0 0-.9.85l-.02-.02c.01-.33.04-.68.1-1.06.06-.38.16-.72.3-1.05.16-.32.36-.6.62-.8.27-.21.62-.32 1.05-.32.4 0 .74.11.98.34.25.24.4.55.45.93Zm-1.54 1.77c.29 0 .54.05.76.15a1.53 1.53 0 0 1 .86 1.03c.06.23.1.48.1.75 0 .25-.04.48-.12.71-.07.23-.18.43-.33.6a1.54 1.54 0 0 1-1.27.57c-.28 0-.53-.05-.75-.15a1.63 1.63 0 0 1-.9-1 2.49 2.49 0 0 1 0-1.5c.08-.23.2-.44.34-.61a1.68 1.68 0 0 1 1.31-.55Zm5.15.38v-.7a6.12 6.12 0 0 1 .22-1.49c.07-.24.17-.44.3-.63.14-.18.3-.32.5-.44.2-.1.45-.16.73-.16.3 0 .54.06.73.16.2.12.37.26.5.44.14.18.24.4.3.63a6.34 6.34 0 0 1 .22 1.5v.69c0 .32 0 .67-.02 1.07s-.09.77-.2 1.12c-.1.35-.28.64-.52.88s-.57.36-1 .36c-.44 0-.78-.12-1.01-.36a2.12 2.12 0 0 1-.53-.88c-.1-.35-.17-.72-.19-1.12l-.03-1.07Zm-1.08.01.03.97c.01.34.05.67.12.99.06.32.15.62.27.9a2.24 2.24 0 0 0 1.28 1.26c.32.13.7.19 1.13.19.45 0 .83-.06 1.14-.19a2.24 2.24 0 0 0 1.27-1.26c.13-.28.22-.58.28-.9.06-.32.1-.65.12-.99a20.95 20.95 0 0 0 0-1.94 6.28 6.28 0 0 0-.4-1.9 2.36 2.36 0 0 0-.48-.75 2.3 2.3 0 0 0-.8-.52c-.3-.13-.68-.2-1.13-.2-.44 0-.81.07-1.13.2-.31.13-.58.3-.79.52-.2.21-.37.46-.49.75a6.78 6.78 0 0 0-.4 1.9l-.02.97Zm8.08-.01v-.7a6.12 6.12 0 0 1 .22-1.49c.07-.24.17-.44.3-.63.14-.18.3-.32.5-.44.2-.1.45-.16.73-.16.3 0 .54.06.73.16.2.12.37.26.5.44.14.18.24.4.3.63a6.34 6.34 0 0 1 .22 1.5v.69c0 .32 0 .67-.02 1.07s-.09.77-.2 1.12c-.1.35-.28.64-.52.88s-.57.36-1 .36c-.44 0-.78-.12-1.01-.36a2.12 2.12 0 0 1-.53-.88c-.1-.35-.17-.72-.19-1.12l-.03-1.07Zm-1.08.01.03.97c.01.34.05.67.12.99.06.32.15.62.27.9a2.24 2.24 0 0 0 1.28 1.26c.32.13.7.19 1.13.19.45 0 .83-.06 1.14-.19a2.24 2.24 0 0 0 1.27-1.26c.13-.28.22-.58.28-.9.06-.32.1-.65.12-.99a20.95 20.95 0 0 0 0-1.94 6.28 6.28 0 0 0-.4-1.9 2.36 2.36 0 0 0-.48-.75 2.3 2.3 0 0 0-.8-.52c-.3-.13-.68-.2-1.13-.2-.44 0-.81.07-1.13.2-.31.13-.58.3-.79.52-.2.21-.37.46-.49.75a6.78 6.78 0 0 0-.4 1.9l-.02.97ZM1321.33 566.34h1.02c-.01-.26.02-.51.08-.76.06-.26.16-.48.3-.68.13-.2.3-.36.51-.49.21-.12.47-.18.76-.18.23 0 .44.04.64.1a1.5 1.5 0 0 1 1 1.44c0 .29-.04.55-.13.77-.1.23-.23.44-.4.63-.19.19-.41.38-.68.57l-.95.62c-.3.17-.58.36-.86.56a3.85 3.85 0 0 0-1.26 1.63c-.14.35-.23.78-.27 1.29h5.55v-.9h-4.36c.04-.27.15-.5.3-.7.16-.2.35-.4.57-.58.22-.17.46-.34.72-.5l.8-.47c.26-.17.51-.34.76-.53.25-.18.47-.39.66-.61a2.64 2.64 0 0 0 .64-1.77c0-.4-.07-.76-.21-1.06a2.2 2.2 0 0 0-.57-.76 2.6 2.6 0 0 0-.85-.47 3.32 3.32 0 0 0-2.24.06 2.42 2.42 0 0 0-1.4 1.6c-.11.36-.16.76-.13 1.19Zm12.58-2v-.87h-5.5v.96h4.45a13.7 13.7 0 0 0-2.27 3.33 12.1 12.1 0 0 0-1.09 4.08h1.14c.04-.67.16-1.35.34-2.05a13.6 13.6 0 0 1 1.72-3.93c.37-.58.78-1.09 1.21-1.51Zm2.48 3.3v-.68a6.12 6.12 0 0 1 .22-1.5c.07-.24.16-.44.3-.63.13-.18.3-.32.5-.44.2-.1.44-.16.73-.16s.53.06.73.16c.2.12.36.26.5.44.13.18.23.4.3.63a6.34 6.34 0 0 1 .21 1.5l.01.69-.03 1.07c-.02.4-.09.77-.2 1.12-.1.35-.27.64-.52.88-.23.24-.57.36-1 .36-.44 0-.77-.12-1.01-.36a2.12 2.12 0 0 1-.52-.88c-.11-.35-.18-.72-.2-1.12-.02-.4-.02-.75-.02-1.07Zm-1.09.02.03.97c.01.34.06.67.12.99.06.32.16.62.28.9.11.28.28.53.48.75.22.22.48.39.8.51.31.13.69.19 1.13.19.45 0 .82-.06 1.14-.19a2.24 2.24 0 0 0 1.27-1.26 6.78 6.78 0 0 0 .4-1.9 20.95 20.95 0 0 0 0-1.93 6.28 6.28 0 0 0-.4-1.9 2.36 2.36 0 0 0-.5-.75 2.3 2.3 0 0 0-.78-.52c-.32-.13-.7-.2-1.13-.2-.44 0-.82.07-1.14.2-.31.13-.57.3-.79.52-.2.21-.37.46-.48.75-.12.3-.22.6-.28.91-.06.32-.1.65-.12.99l-.03.97Zm8.09-.01v-.7a6.12 6.12 0 0 1 .22-1.49c.07-.24.16-.44.3-.63.13-.18.3-.32.5-.44.2-.1.44-.16.73-.16s.53.06.73.16c.2.12.36.26.5.44.13.18.23.4.3.63a6.34 6.34 0 0 1 .21 1.5l.01.69-.03 1.07c-.02.4-.09.77-.2 1.12-.1.35-.27.64-.52.88-.23.24-.57.36-1 .36-.44 0-.77-.12-1.01-.36a2.12 2.12 0 0 1-.52-.88c-.11-.35-.18-.72-.2-1.12-.02-.4-.02-.75-.02-1.07Zm-1.09.01.03.97c.01.34.06.67.12.99.06.32.16.62.28.9.11.28.28.53.48.75.22.22.48.39.8.51.31.13.69.19 1.13.19.45 0 .82-.06 1.14-.19a2.24 2.24 0 0 0 1.27-1.26 6.78 6.78 0 0 0 .4-1.9 20.95 20.95 0 0 0 0-1.93 6.28 6.28 0 0 0-.4-1.9 2.36 2.36 0 0 0-.5-.75 2.3 2.3 0 0 0-.78-.52c-.32-.13-.7-.2-1.13-.2-.44 0-.82.07-1.14.2-.31.13-.57.3-.79.52-.2.21-.37.46-.48.75-.12.3-.22.6-.28.91-.06.32-.1.65-.12.99l-.03.97ZM1370.73 566.34h1.02c-.01-.26.02-.51.07-.76.07-.26.16-.48.3-.68a1.47 1.47 0 0 1 1.28-.67c.22 0 .44.04.64.1a1.5 1.5 0 0 1 1 1.44c0 .29-.04.55-.13.77-.1.23-.23.44-.41.63-.18.19-.4.38-.68.57l-.94.62c-.3.17-.58.36-.86.56a3.85 3.85 0 0 0-1.26 1.63c-.14.35-.23.78-.27 1.29h5.55v-.9h-4.36c.04-.27.14-.5.3-.7.16-.2.34-.4.57-.58.22-.17.46-.34.72-.5l.8-.47c.26-.17.51-.34.76-.53.25-.18.47-.39.66-.61a2.64 2.64 0 0 0 .64-1.77c0-.4-.07-.76-.21-1.06a2.2 2.2 0 0 0-.57-.76 2.6 2.6 0 0 0-.85-.47 3.32 3.32 0 0 0-2.24.06 2.42 2.42 0 0 0-1.4 1.6c-.11.36-.16.76-.13 1.19Zm8.33-.8a1.22 1.22 0 0 1 .44-.98c.13-.1.29-.2.47-.25a2 2 0 0 1 .58-.08c.41 0 .75.11 1.02.33.27.22.4.55.4.98 0 .43-.13.76-.4 1-.25.25-.59.36-1 .36-.2 0-.4-.02-.59-.08a1.35 1.35 0 0 1-.48-.25c-.13-.11-.24-.26-.32-.43a1.38 1.38 0 0 1-.12-.6Zm-1.08-.04c0 .38.1.74.32 1.06.22.33.5.56.87.7-.48.17-.85.44-1.1.81a2.7 2.7 0 0 0-.16 2.45c.14.33.34.6.6.81.26.22.57.38.92.48a3.97 3.97 0 0 0 2.25 0 2.4 2.4 0 0 0 1.71-2.41c0-.54-.12-.99-.37-1.35a2.08 2.08 0 0 0-1.14-.78 2 2 0 0 0 .86-.72c.2-.32.31-.67.31-1.05 0-.27-.04-.54-.14-.8s-.25-.49-.45-.7c-.2-.2-.47-.36-.8-.48a3.35 3.35 0 0 0-2.12-.05c-.3.1-.57.24-.8.42-.24.18-.42.41-.56.68-.13.27-.2.58-.2.93Zm.78 3.94a1.55 1.55 0 0 1 1.1-1.52c.22-.08.45-.12.7-.12a1.88 1.88 0 0 1 1.24.47 1.55 1.55 0 0 1 .51 1.16 1.64 1.64 0 0 1-.49 1.18 1.85 1.85 0 0 1-1.25.47c-.53 0-.96-.15-1.3-.44a1.5 1.5 0 0 1-.51-1.2Zm7.03-1.8v-.68a6.12 6.12 0 0 1 .21-1.5c.07-.24.17-.44.3-.63.14-.18.3-.32.5-.44.2-.1.45-.16.74-.16.28 0 .53.06.73.16.2.12.36.26.5.44.13.18.23.4.3.63a6.34 6.34 0 0 1 .21 1.5v.69c0 .32 0 .67-.02 1.07s-.09.77-.2 1.12c-.1.35-.27.64-.52.88-.24.24-.57.36-1 .36-.44 0-.77-.12-1.01-.36a2.12 2.12 0 0 1-.53-.88c-.1-.35-.17-.72-.19-1.12-.02-.4-.02-.75-.02-1.07Zm-1.09.02.03.97c.01.34.06.67.12.99.06.32.15.62.28.9.11.28.28.53.48.75.21.22.48.39.8.51.3.13.68.19 1.13.19.44 0 .82-.06 1.14-.19a2.24 2.24 0 0 0 1.27-1.26 6.78 6.78 0 0 0 .4-1.9 20.95 20.95 0 0 0 0-1.93 6.28 6.28 0 0 0-.4-1.9 2.36 2.36 0 0 0-.5-.75 2.3 2.3 0 0 0-.78-.52c-.32-.13-.7-.2-1.13-.2-.45 0-.82.07-1.14.2-.31.13-.58.3-.79.52-.2.21-.37.46-.48.75-.13.3-.22.6-.28.91-.06.32-.1.65-.12.99l-.03.97Zm8.09-.01v-.7a6.12 6.12 0 0 1 .21-1.49c.07-.24.17-.44.3-.63.14-.18.3-.32.5-.44.2-.1.45-.16.74-.16.28 0 .53.06.73.16.2.12.36.26.5.44.13.18.23.4.3.63a6.34 6.34 0 0 1 .21 1.5v.69c0 .32 0 .67-.02 1.07s-.09.77-.2 1.12c-.1.35-.27.64-.52.88-.24.24-.57.36-1 .36-.44 0-.77-.12-1.01-.36a2.12 2.12 0 0 1-.53-.88c-.1-.35-.17-.72-.19-1.12-.02-.4-.02-.75-.02-1.07Zm-1.09.01.03.97c.01.34.06.67.12.99.06.32.15.62.28.9.11.28.28.53.48.75.21.22.48.39.8.51.3.13.68.19 1.13.19.44 0 .82-.06 1.14-.19a2.24 2.24 0 0 0 1.27-1.26 6.78 6.78 0 0 0 .4-1.9 20.95 20.95 0 0 0 0-1.93 6.28 6.28 0 0 0-.4-1.9 2.36 2.36 0 0 0-.5-.75 2.3 2.3 0 0 0-.78-.52c-.32-.13-.7-.2-1.13-.2-.45 0-.82.07-1.14.2-.31.13-.58.3-.79.52-.2.21-.37.46-.48.75-.13.3-.22.6-.28.91-.06.32-.1.65-.12.99l-.03.97ZM1420.13 566.34h1.02c0-.26.02-.51.08-.76.06-.26.16-.48.3-.68.13-.2.3-.36.51-.49.21-.12.47-.18.76-.18.23 0 .44.04.64.1a1.5 1.5 0 0 1 1 1.44c0 .29-.04.55-.13.77-.1.23-.23.44-.4.63-.19.19-.41.38-.68.57l-.95.62c-.3.17-.58.36-.85.56a3.85 3.85 0 0 0-1.27 1.63c-.14.35-.23.78-.27 1.29h5.56v-.9h-4.37c.05-.27.15-.5.3-.7.16-.2.35-.4.57-.58.22-.17.46-.34.72-.5l.8-.47c.26-.17.51-.34.76-.53.25-.18.47-.39.66-.61a2.64 2.64 0 0 0 .64-1.77c0-.4-.07-.76-.21-1.06a2.2 2.2 0 0 0-.57-.76 2.6 2.6 0 0 0-.85-.47 3.32 3.32 0 0 0-2.24.06 2.42 2.42 0 0 0-1.4 1.6c-.11.36-.15.76-.13 1.19Zm8.08 3.45h-1.02c.06.73.33 1.28.8 1.64.47.36 1.07.54 1.78.54 1.03 0 1.78-.4 2.25-1.18.47-.8.7-1.92.7-3.4 0-.8-.08-1.47-.23-2a3.37 3.37 0 0 0-.63-1.23c-.27-.3-.57-.52-.93-.64a3.34 3.34 0 0 0-2.25.01 2.53 2.53 0 0 0-1.46 1.45c-.14.34-.21.71-.21 1.12 0 .42.06.8.17 1.15.12.35.3.65.52.9.23.25.51.44.85.58.33.14.72.22 1.15.22.41 0 .8-.11 1.15-.33.35-.2.62-.5.81-.85l.03.02a5.45 5.45 0 0 1-.52 2.48c-.31.54-.78.8-1.4.8-.4 0-.76-.1-1.06-.33-.3-.22-.46-.54-.5-.95Zm3.3-3.62c0 .25-.04.49-.12.72a1.67 1.67 0 0 1-2.83.6 1.92 1.92 0 0 1-.47-1.25c0-.26.03-.51.09-.75s.16-.45.29-.64c.13-.19.3-.34.51-.46.22-.1.47-.16.78-.16a1.6 1.6 0 0 1 1.3.58c.15.18.26.39.33.62.08.23.12.48.12.74Zm3.68 1.48v-.7a6.12 6.12 0 0 1 .22-1.49c.07-.24.16-.44.3-.63.13-.18.3-.32.5-.44.2-.1.44-.16.73-.16s.53.06.73.16c.2.12.37.26.5.44s.23.4.3.63a6.34 6.34 0 0 1 .21 1.5l.01.69-.03 1.07c-.02.4-.09.77-.2 1.12-.1.35-.27.64-.51.88s-.58.36-1.01.36c-.44 0-.77-.12-1.01-.36a2.12 2.12 0 0 1-.52-.88c-.1-.35-.18-.72-.2-1.12l-.02-1.07Zm-1.08.01c0 .31 0 .64.02.97.01.34.06.67.12.99.06.32.16.62.28.9a2.24 2.24 0 0 0 1.28 1.26c.31.13.69.19 1.13.19.45 0 .83-.06 1.14-.19a2.24 2.24 0 0 0 1.27-1.26c.12-.28.21-.58.28-.9.06-.32.1-.65.12-.99a20.95 20.95 0 0 0 0-1.94 6.28 6.28 0 0 0-.4-1.9 2.36 2.36 0 0 0-.5-.75 2.3 2.3 0 0 0-.78-.52c-.32-.13-.7-.2-1.13-.2-.44 0-.82.07-1.14.2-.31.13-.57.3-.78.52-.21.21-.38.46-.5.75a6.78 6.78 0 0 0-.4 1.9l-.01.97Zm8.08-.01v-.7a6.12 6.12 0 0 1 .22-1.49c.07-.24.16-.44.3-.63.13-.18.3-.32.5-.44.2-.1.44-.16.73-.16s.53.06.73.16c.2.12.37.26.5.44s.23.4.3.63a6.34 6.34 0 0 1 .21 1.5l.01.69-.03 1.07c-.02.4-.09.77-.2 1.12-.1.35-.27.64-.51.88s-.58.36-1.01.36c-.44 0-.77-.12-1.01-.36a2.12 2.12 0 0 1-.52-.88c-.1-.35-.18-.72-.2-1.12l-.02-1.07Zm-1.08.01c0 .31 0 .64.02.97.01.34.06.67.12.99.06.32.16.62.28.9a2.24 2.24 0 0 0 1.28 1.26c.31.13.69.19 1.13.19.45 0 .83-.06 1.14-.19a2.24 2.24 0 0 0 1.27-1.26c.12-.28.21-.58.28-.9.06-.32.1-.65.12-.99a20.95 20.95 0 0 0 0-1.94 6.28 6.28 0 0 0-.4-1.9 2.36 2.36 0 0 0-.5-.75 2.3 2.3 0 0 0-.78-.52c-.32-.13-.7-.2-1.13-.2-.44 0-.82.07-1.14.2-.31.13-.57.3-.78.52-.21.21-.38.46-.5.75a6.78 6.78 0 0 0-.4 1.9l-.01.97ZM1471.62 566.98v.86c.19-.02.4-.04.6-.04.26 0 .5.04.72.1a1.53 1.53 0 0 1 1.1 1.54c0 .25-.05.48-.15.68-.1.2-.23.38-.4.52s-.37.25-.6.32c-.21.08-.45.12-.7.12-.58 0-1.03-.17-1.33-.52-.3-.35-.47-.8-.48-1.35h-1.02c0 .44.05.83.19 1.17a2.32 2.32 0 0 0 1.47 1.4 3.82 3.82 0 0 0 2.3.02 2.4 2.4 0 0 0 1.8-2.42c0-.5-.13-.95-.38-1.33a1.78 1.78 0 0 0-1.15-.73v-.02c.33-.15.6-.37.84-.67.22-.3.33-.64.33-1.02 0-.4-.06-.74-.2-1.02a1.92 1.92 0 0 0-.54-.71c-.23-.18-.5-.32-.82-.42a3.75 3.75 0 0 0-1.03-.13c-.43 0-.8.06-1.12.2a2.25 2.25 0 0 0-1.31 1.43c-.12.34-.19.7-.2 1.11h1.02c0-.24.03-.48.1-.7.06-.23.16-.42.29-.59.13-.17.3-.3.5-.4.2-.1.44-.15.72-.15.43 0 .8.11 1.08.34.29.23.43.57.43 1.03a1.3 1.3 0 0 1-.48 1.03c-.15.12-.33.21-.52.27-.2.06-.4.09-.62.09H1471.72l-.1-.01Zm5.97.67v-.7a6.12 6.12 0 0 1 .21-1.49c.08-.24.17-.44.3-.63.14-.18.3-.32.5-.44.2-.1.45-.16.74-.16s.53.06.73.16c.2.12.36.26.5.44.13.18.23.4.3.63a6.34 6.34 0 0 1 .21 1.5l.01.69-.03 1.07c-.02.4-.09.77-.2 1.12-.1.35-.27.64-.52.88-.23.24-.57.36-1 .36-.44 0-.77-.12-1.01-.36a2.12 2.12 0 0 1-.53-.88c-.1-.35-.17-.72-.19-1.12-.02-.4-.02-.75-.02-1.07Zm-1.09.01.03.97c.01.34.06.67.12.99.06.32.15.62.28.9.11.28.28.53.48.75.21.22.48.39.8.51.31.13.68.19 1.13.19.45 0 .82-.06 1.14-.19a2.24 2.24 0 0 0 1.27-1.26 6.78 6.78 0 0 0 .4-1.9 20.95 20.95 0 0 0 0-1.93 6.28 6.28 0 0 0-.4-1.9 2.36 2.36 0 0 0-.5-.75 2.3 2.3 0 0 0-.78-.52c-.32-.13-.7-.2-1.13-.2-.45 0-.82.07-1.14.2-.31.13-.58.3-.79.52-.2.21-.37.46-.48.75-.13.3-.22.6-.28.91-.06.32-.1.65-.12.99l-.03.97Zm8.09-.01v-.7a6.12 6.12 0 0 1 .21-1.49c.08-.24.17-.44.3-.63.14-.18.3-.32.5-.44.2-.1.45-.16.74-.16s.53.06.73.16c.2.12.36.26.5.44.13.18.23.4.3.63a6.34 6.34 0 0 1 .21 1.5l.01.69-.03 1.07c-.02.4-.09.77-.2 1.12-.1.35-.27.64-.52.88-.23.24-.57.36-1 .36-.44 0-.77-.12-1.01-.36a2.12 2.12 0 0 1-.53-.88c-.1-.35-.17-.72-.19-1.12-.02-.4-.02-.75-.02-1.07Zm-1.09.01.03.97c.01.34.06.67.12.99.06.32.15.62.28.9.11.28.28.53.48.75.21.22.48.39.8.51.31.13.68.19 1.13.19.45 0 .82-.06 1.14-.19a2.24 2.24 0 0 0 1.27-1.26 6.78 6.78 0 0 0 .4-1.9 20.95 20.95 0 0 0 0-1.93 6.28 6.28 0 0 0-.4-1.9 2.36 2.36 0 0 0-.5-.75 2.3 2.3 0 0 0-.78-.52c-.32-.13-.7-.2-1.13-.2-.45 0-.82.07-1.14.2-.31.13-.58.3-.79.52-.2.21-.37.46-.48.75-.13.3-.22.6-.28.91-.06.32-.1.65-.12.99l-.03.97Zm8.09-.01v-.7a6.12 6.12 0 0 1 .21-1.49c.08-.24.17-.44.3-.63.14-.18.3-.32.5-.44.2-.1.45-.16.74-.16s.53.06.73.16c.2.12.36.26.5.44.13.18.23.4.3.63a6.34 6.34 0 0 1 .21 1.5l.01.69-.03 1.07c-.02.4-.09.77-.2 1.12-.1.35-.27.64-.52.88-.23.24-.57.36-1 .36-.44 0-.77-.12-1.01-.36a2.12 2.12 0 0 1-.53-.88c-.1-.35-.17-.72-.19-1.12-.02-.4-.02-.75-.02-1.07Zm-1.09.01.03.97c.01.34.06.67.12.99.06.32.15.62.28.9.11.28.28.53.48.75.21.22.48.39.8.51.31.13.68.19 1.13.19.45 0 .82-.06 1.14-.19a2.24 2.24 0 0 0 1.27-1.26 6.78 6.78 0 0 0 .4-1.9 20.95 20.95 0 0 0 0-1.93 6.28 6.28 0 0 0-.4-1.9 2.36 2.36 0 0 0-.5-.75 2.3 2.3 0 0 0-.78-.52c-.32-.13-.7-.2-1.13-.2-.45 0-.82.07-1.14.2-.31.13-.58.3-.79.52-.2.21-.37.46-.48.75-.13.3-.22.6-.28.91-.06.32-.1.65-.12.99l-.03.97Zm-21.5-7.25" style="stroke:none;fill-rule:nonzero;fill:#666;fill-opacity:1"/><path d="M50.5 32v518" style="fill:none;stroke-width:1;stroke-linecap:butt;stroke-linejoin:miter;stroke:#000;stroke-opacity:.0980392;stroke-miterlimit:10"/><path d="M25.93 548.14h1.02c-.01-.26.01-.51.07-.76.07-.26.16-.48.3-.68a1.47 1.47 0 0 1 1.28-.67c.22 0 .44.03.64.1a1.5 1.5 0 0 1 1 1.43c0 .3-.04.56-.13.78-.1.23-.23.43-.41.62-.18.2-.4.39-.68.58l-.95.61c-.3.18-.57.37-.85.57a3.85 3.85 0 0 0-1.26 1.62c-.14.36-.23.79-.27 1.3h5.55v-.9h-4.36c.04-.27.14-.5.3-.7.16-.21.34-.4.57-.58.21-.17.46-.34.72-.5l.8-.47.76-.53c.25-.18.47-.39.66-.62a2.64 2.64 0 0 0 .64-1.77c0-.4-.07-.75-.21-1.05a2.2 2.2 0 0 0-.57-.77 2.6 2.6 0 0 0-.85-.46 3.32 3.32 0 0 0-2.24.06 2.42 2.42 0 0 0-1.4 1.59c-.11.36-.16.76-.13 1.2Zm8.05 1.3v-.69a6.12 6.12 0 0 1 .22-1.49c.07-.24.17-.45.3-.63.14-.18.3-.33.5-.44.2-.1.45-.17.73-.17.3 0 .54.06.73.17.2.11.37.26.5.44.14.18.24.39.3.63a6.34 6.34 0 0 1 .22 1.5v.69c0 .32 0 .67-.02 1.07s-.09.77-.2 1.12c-.1.34-.28.64-.52.88s-.57.36-1 .36c-.44 0-.78-.12-1.01-.36a2.12 2.12 0 0 1-.53-.88c-.1-.35-.17-.73-.19-1.12l-.03-1.07Zm-1.08.02.03.97c.01.34.05.66.12.98.06.32.15.63.27.91a2.24 2.24 0 0 0 1.28 1.26c.32.12.7.19 1.13.19.45 0 .83-.07 1.15-.2a2.24 2.24 0 0 0 1.26-1.25c.13-.28.22-.59.28-.9.06-.33.1-.65.12-.99a20.95 20.95 0 0 0 0-1.95 6.28 6.28 0 0 0-.4-1.89 2.36 2.36 0 0 0-.48-.76 2.3 2.3 0 0 0-.8-.51c-.3-.13-.68-.2-1.13-.2-.44 0-.81.07-1.13.2-.31.13-.58.3-.79.51-.2.22-.37.47-.49.76a6.78 6.78 0 0 0-.4 1.9l-.02.97ZM25.93 483.49h1.02c-.01-.26.01-.51.07-.76.07-.26.16-.48.3-.68a1.47 1.47 0 0 1 1.28-.67c.22 0 .44.03.64.1a1.5 1.5 0 0 1 1 1.43c0 .3-.04.56-.13.78-.1.23-.23.44-.41.63-.18.19-.4.38-.68.57-.27.18-.59.4-.95.61-.3.18-.57.37-.85.57a3.85 3.85 0 0 0-1.26 1.63c-.14.35-.23.78-.27 1.28h5.55v-.9h-4.36c.04-.26.14-.5.3-.7.16-.2.34-.4.57-.57.21-.17.46-.34.72-.5l.8-.47c.26-.17.51-.34.76-.53.25-.18.47-.39.66-.61a2.64 2.64 0 0 0 .64-1.77c0-.4-.07-.76-.21-1.06a2.2 2.2 0 0 0-.57-.76 2.6 2.6 0 0 0-.85-.47 3.32 3.32 0 0 0-2.24.06 2.42 2.42 0 0 0-1.4 1.59c-.11.37-.16.76-.13 1.2Zm12.1-1.97v-.9h-4.19l-.8 4.42.88.05c.2-.25.43-.44.7-.59a2.05 2.05 0 0 1 1.68-.08 1.75 1.75 0 0 1 .99 1.02 2.43 2.43 0 0 1 0 1.66c-.1.25-.24.45-.4.62-.16.17-.35.3-.57.38a2 2 0 0 1-1.4.01 1.6 1.6 0 0 1-1.08-1.42h-1.02c0 .38.08.73.23 1.03.14.3.34.56.58.77.25.2.54.36.86.46.33.11.67.17 1.04.17.5 0 .93-.08 1.3-.24a2.63 2.63 0 0 0 1.49-1.54 3.44 3.44 0 0 0-.03-2.33 2.42 2.42 0 0 0-1.46-1.46c-.34-.1-.7-.17-1.07-.17-.3 0-.58.05-.87.15-.3.1-.53.26-.71.46l-.03-.02.46-2.45ZM28.02 419.48v.86c.19-.02.39-.04.6-.04.26 0 .5.04.72.1a1.53 1.53 0 0 1 1.1 1.54c0 .25-.05.48-.15.69-.1.2-.24.37-.4.51a2.11 2.11 0 0 1-1.3.44c-.58 0-1.03-.17-1.33-.52-.3-.35-.47-.8-.48-1.35h-1.02c-.01.44.05.83.19 1.17a2.32 2.32 0 0 0 1.46 1.4 3.82 3.82 0 0 0 2.3.02 2.4 2.4 0 0 0 1.8-2.42c.01-.5-.12-.95-.37-1.33a1.78 1.78 0 0 0-1.16-.73v-.02c.34-.15.62-.37.84-.67.23-.3.34-.64.34-1.02 0-.4-.07-.74-.2-1.02a1.92 1.92 0 0 0-.55-.71c-.23-.18-.5-.32-.82-.42a3.75 3.75 0 0 0-1.02-.13c-.43 0-.8.06-1.12.2a2.25 2.25 0 0 0-1.31 1.43c-.12.34-.19.7-.2 1.11h1.02c0-.24.03-.48.1-.7.06-.23.15-.42.29-.59.13-.17.3-.3.5-.4.2-.1.44-.15.72-.15.43 0 .79.11 1.07.34.3.23.44.57.44 1.03a1.3 1.3 0 0 1-.49 1.03c-.14.12-.32.21-.51.27-.2.06-.4.09-.62.09H28.12l-.1-.01Zm5.96.67v-.7a6.12 6.12 0 0 1 .22-1.49c.07-.24.17-.44.3-.63.14-.18.3-.32.5-.44.2-.1.45-.16.73-.16.3 0 .54.06.73.16.2.12.37.26.5.44.14.18.24.4.3.63a6.34 6.34 0 0 1 .22 1.5v.69c0 .32 0 .67-.02 1.07s-.09.77-.2 1.12c-.1.35-.28.64-.52.88s-.57.36-1 .36c-.44 0-.78-.12-1.01-.36a2.12 2.12 0 0 1-.53-.88c-.1-.35-.17-.72-.19-1.12l-.03-1.07Zm-1.08.01.03.97c.01.34.05.67.12.99.06.32.15.62.27.9a2.24 2.24 0 0 0 1.28 1.26c.32.13.7.19 1.13.19.45 0 .83-.06 1.15-.19a2.24 2.24 0 0 0 1.26-1.26c.13-.28.22-.58.28-.9.06-.32.1-.65.12-.99a20.95 20.95 0 0 0 0-1.94 6.28 6.28 0 0 0-.4-1.9 2.36 2.36 0 0 0-.48-.75 2.3 2.3 0 0 0-.8-.52c-.3-.13-.68-.2-1.13-.2-.44 0-.81.07-1.13.2-.31.13-.58.3-.79.52-.2.21-.37.46-.49.75a6.78 6.78 0 0 0-.4 1.9l-.02.97ZM28.02 354.83v.86c.19-.02.39-.03.6-.03.26 0 .5.03.72.1a1.53 1.53 0 0 1 1.1 1.53c0 .25-.05.48-.15.69-.1.2-.24.37-.4.51a2.11 2.11 0 0 1-1.3.44c-.58 0-1.03-.17-1.33-.52-.3-.35-.47-.8-.48-1.35h-1.02c-.01.44.05.83.19 1.17a2.32 2.32 0 0 0 1.46 1.41 3.82 3.82 0 0 0 2.3.02 2.4 2.4 0 0 0 1.8-2.42c.01-.51-.12-.95-.37-1.33a1.78 1.78 0 0 0-1.16-.73v-.03c.34-.15.62-.37.84-.67.23-.3.34-.64.34-1.02 0-.4-.07-.73-.2-1.02a1.92 1.92 0 0 0-.55-.71c-.23-.18-.5-.32-.82-.41a3.75 3.75 0 0 0-1.02-.14c-.43 0-.8.07-1.12.2a2.25 2.25 0 0 0-1.31 1.43c-.12.34-.19.71-.2 1.12h1.02c0-.25.03-.48.1-.71.06-.22.15-.42.29-.59.13-.17.3-.3.5-.4.2-.1.44-.15.72-.15.43 0 .79.12 1.07.34.3.23.44.57.44 1.03a1.3 1.3 0 0 1-.49 1.03c-.14.12-.32.21-.51.27-.2.06-.4.09-.62.09H28.12l-.1-.01Zm10.02-2.6v-.9h-4.2l-.8 4.4.88.06c.2-.24.43-.44.7-.58.25-.15.55-.23.89-.23.28 0 .54.05.78.15a1.75 1.75 0 0 1 1 1.01 2.43 2.43 0 0 1 0 1.66c-.1.25-.24.46-.4.63-.16.16-.35.3-.57.37-.22.1-.45.13-.7.13a2 2 0 0 1-.7-.11 1.6 1.6 0 0 1-1.08-1.43h-1.02c0 .39.08.74.23 1.04.14.3.34.55.58.76.25.2.54.36.86.47.33.1.67.16 1.04.16.5 0 .93-.08 1.3-.23a2.63 2.63 0 0 0 1.49-1.54 3.44 3.44 0 0 0-.03-2.33 2.42 2.42 0 0 0-1.46-1.46c-.34-.12-.7-.18-1.07-.18-.3 0-.58.05-.87.15-.3.1-.53.26-.71.47l-.03-.03.46-2.45ZM29.46 292.14h-2.85l2.83-4.16h.02Zm.97 0v-5.62h-.82l-3.88 5.53v.99h3.73v2h.97v-2h1.15v-.9Zm3.55-1.3v-.69a6.12 6.12 0 0 1 .22-1.49c.07-.24.17-.45.3-.63.14-.18.3-.33.5-.44.2-.11.45-.17.73-.17.3 0 .54.06.73.17.2.11.37.26.5.44.14.18.24.39.3.63a6.34 6.34 0 0 1 .22 1.5v.68c0 .32 0 .68-.02 1.08s-.09.76-.2 1.12c-.1.34-.28.64-.52.87-.24.25-.57.36-1 .36-.44 0-.78-.11-1.01-.36a2.12 2.12 0 0 1-.53-.87c-.1-.35-.17-.73-.19-1.12l-.03-1.08Zm-1.08.02.03.97c.01.33.05.66.12.98.06.32.15.62.27.9a2.24 2.24 0 0 0 1.28 1.26c.32.13.7.2 1.13.2.45 0 .83-.07 1.15-.2a2.24 2.24 0 0 0 1.26-1.25c.13-.29.22-.59.28-.9.06-.33.1-.66.12-1a20.95 20.95 0 0 0 0-1.94 6.28 6.28 0 0 0-.4-1.9 2.36 2.36 0 0 0-.48-.75 2.3 2.3 0 0 0-.8-.52c-.3-.12-.68-.19-1.13-.19-.44 0-.81.07-1.13.2-.31.12-.58.3-.79.51-.2.22-.37.47-.49.76a6.78 6.78 0 0 0-.4 1.9l-.02.97ZM29.46 227.5h-2.85l2.83-4.17h.02Zm.97 0v-5.63h-.82l-3.88 5.54v.98h3.73v2h.97v-2h1.15v-.9Zm7.6-4.58v-.9h-4.19l-.8 4.41.88.05c.2-.24.43-.43.7-.58a2.05 2.05 0 0 1 1.68-.08 1.75 1.75 0 0 1 .99 1.02 2.43 2.43 0 0 1 0 1.66c-.1.25-.24.45-.4.62-.16.17-.35.3-.57.38a2 2 0 0 1-1.4.01 1.6 1.6 0 0 1-1.08-1.42h-1.02c0 .38.08.73.23 1.03.14.3.34.56.58.77.25.2.54.36.86.46.33.11.67.17 1.04.17.5 0 .93-.08 1.3-.24a2.63 2.63 0 0 0 1.49-1.54 3.44 3.44 0 0 0-.03-2.33 2.42 2.42 0 0 0-1.46-1.46c-.34-.11-.7-.17-1.07-.17-.3 0-.58.05-.87.15-.3.1-.53.25-.71.46l-.03-.02.46-2.45ZM31.04 158.27v-.9h-4.2l-.8 4.42.88.05c.2-.25.43-.44.7-.59a2.05 2.05 0 0 1 1.68-.08 1.75 1.75 0 0 1 .99 1.02 2.43 2.43 0 0 1 0 1.66c-.1.25-.24.45-.4.62-.16.17-.35.3-.57.38a2 2 0 0 1-1.4.01 1.6 1.6 0 0 1-1.08-1.42h-1.02c0 .38.08.73.23 1.03.14.3.34.56.58.77.25.2.54.36.86.46.33.11.67.17 1.04.17.5 0 .93-.08 1.3-.24a2.63 2.63 0 0 0 1.49-1.54 3.44 3.44 0 0 0-.03-2.33 2.42 2.42 0 0 0-1.46-1.46c-.34-.1-.7-.17-1.07-.17-.3 0-.58.05-.87.15-.3.1-.53.26-.71.46l-.03-.02.46-2.45Zm2.94 3.28v-.7a6.12 6.12 0 0 1 .22-1.49c.07-.24.17-.45.3-.63.14-.18.3-.32.5-.44.2-.1.45-.16.73-.16.3 0 .54.05.73.16.2.12.37.26.5.44.14.18.24.4.3.63a6.34 6.34 0 0 1 .22 1.5v.69c0 .32 0 .67-.02 1.07s-.09.77-.2 1.12c-.1.35-.28.64-.52.88s-.57.36-1 .36c-.44 0-.78-.12-1.01-.36a2.12 2.12 0 0 1-.53-.88c-.1-.35-.17-.72-.19-1.12l-.03-1.07Zm-1.08 0 .03.98c.01.34.05.67.12.99.06.32.15.62.27.9a2.24 2.24 0 0 0 1.28 1.26c.32.12.7.19 1.13.19.45 0 .83-.07 1.15-.19a2.24 2.24 0 0 0 1.26-1.26c.13-.28.22-.58.28-.9.06-.32.1-.65.12-.99a20.95 20.95 0 0 0 0-1.94 6.28 6.28 0 0 0-.4-1.9 2.36 2.36 0 0 0-.48-.76 2.3 2.3 0 0 0-.8-.51c-.3-.13-.68-.2-1.13-.2-.44 0-.81.07-1.13.2-.31.13-.58.3-.79.51-.2.22-.37.47-.49.76a6.78 6.78 0 0 0-.4 1.9l-.02.97ZM31.04 93.62v-.9h-4.2l-.8 4.42.88.05c.2-.24.43-.44.7-.58.25-.15.55-.23.89-.23.28 0 .54.05.78.15a1.75 1.75 0 0 1 1 1 2.43 2.43 0 0 1 0 1.66c-.1.26-.24.47-.4.63-.16.17-.35.3-.57.38a2 2 0 0 1-1.4.01 1.6 1.6 0 0 1-1.08-1.42h-1.02c0 .39.08.73.23 1.03.14.3.34.56.58.77.25.2.54.36.86.46.33.11.67.17 1.04.17.5 0 .93-.08 1.3-.24a2.63 2.63 0 0 0 1.49-1.54 3.44 3.44 0 0 0-.03-2.33 2.42 2.42 0 0 0-1.46-1.46c-.34-.1-.7-.17-1.07-.17-.3 0-.58.05-.87.15-.3.1-.53.26-.71.46l-.03-.02.46-2.45Zm7 0v-.9h-4.2l-.8 4.42.88.05c.2-.24.43-.44.7-.58.25-.15.55-.23.89-.23.28 0 .54.05.78.15a1.75 1.75 0 0 1 1 1 2.43 2.43 0 0 1 0 1.66c-.1.26-.24.47-.4.63-.16.17-.35.3-.57.38a2 2 0 0 1-1.4.01 1.6 1.6 0 0 1-1.08-1.42h-1.02c0 .39.08.73.23 1.03.14.3.34.56.58.77.25.2.54.36.86.46.33.11.67.17 1.04.17.5 0 .93-.08 1.3-.24a2.63 2.63 0 0 0 1.49-1.54 3.44 3.44 0 0 0-.03-2.33 2.42 2.42 0 0 0-1.46-1.46c-.34-.1-.7-.17-1.07-.17-.3 0-.58.05-.87.15-.3.1-.53.26-.71.46l-.03-.02.46-2.45ZM30.37 30.1h1.02c-.07-.7-.3-1.24-.72-1.61a2.44 2.44 0 0 0-1.68-.56c-.61 0-1.11.13-1.52.38-.4.26-.72.6-.95 1.02-.25.43-.41.91-.52 1.46a9.28 9.28 0 0 0-.04 3.1c.06.47.2.91.41 1.31.2.4.5.73.89.98.38.26.9.39 1.52.39.54 0 .99-.09 1.35-.27a2.55 2.55 0 0 0 1.35-1.6 3.61 3.61 0 0 0-.03-2.07 2.66 2.66 0 0 0-.51-.87 2.3 2.3 0 0 0-.82-.58c-.32-.14-.69-.22-1.1-.22-.46 0-.87.1-1.23.27a2.2 2.2 0 0 0-.9.85l-.02-.02c.01-.33.04-.68.1-1.06.06-.38.16-.72.3-1.05.16-.32.36-.6.62-.8.27-.21.62-.32 1.05-.32.4 0 .74.12.98.35.25.23.4.54.45.92Zm-1.54 1.77c.29 0 .54.05.76.15a1.53 1.53 0 0 1 .86 1.03c.06.24.1.49.1.75 0 .25-.04.49-.12.71-.07.23-.18.43-.33.6a1.54 1.54 0 0 1-1.27.57c-.28 0-.53-.05-.75-.15a1.63 1.63 0 0 1-.9-1 2.49 2.49 0 0 1 0-1.5 1.68 1.68 0 0 1 1.65-1.17Zm5.15.38v-.7a6.12 6.12 0 0 1 .22-1.48c.07-.25.17-.45.3-.64a1.5 1.5 0 0 1 1.23-.6c.3 0 .54.06.73.17.2.1.37.25.5.43.14.18.24.4.3.64a6.34 6.34 0 0 1 .22 1.49v.69c0 .32 0 .68-.02 1.07-.02.4-.09.77-.2 1.12-.1.35-.28.64-.52.88s-.57.36-1 .36c-.44 0-.78-.12-1.01-.36a2.12 2.12 0 0 1-.53-.88c-.1-.35-.17-.72-.19-1.12l-.03-1.07Zm-1.08.01.03.97c.01.34.05.67.12.99.06.32.15.62.27.9a2.24 2.24 0 0 0 1.28 1.26c.32.13.7.19 1.13.19.45 0 .83-.06 1.15-.19a2.24 2.24 0 0 0 1.26-1.26c.13-.28.22-.58.28-.9.06-.32.1-.65.12-.99a20.95 20.95 0 0 0 0-1.94 6.28 6.28 0 0 0-.4-1.9 2.36 2.36 0 0 0-.48-.75 2.3 2.3 0 0 0-.8-.52c-.3-.13-.68-.19-1.13-.19-.44 0-.81.06-1.13.2-.31.12-.58.3-.79.5-.2.22-.37.48-.49.76a6.78 6.78 0 0 0-.4 1.9l-.02.97Zm-7.5-7.25" style="stroke:none;fill-rule:nonzero;fill:#666;fill-opacity:1"/><g clip-path="url(#a)"><path d="M50.4 32H791.4c24.9 17.18 24.5 50.39 49.4 68.14 14.63 10.43 37.07-10.1 49.4 2.33 27.2 27.4 24.82 62.04 49.4 97.23 14.94 21.4 27.3 30.51 49.4 44.22 17.42 10.81 30.6 8.19 49.4 17.07 20.72 9.79 30.42 16.62 49.4 29.61 20.54 14.06 29.16 23.47 49.4 38.01 19.28 13.86 30.42 18.74 49.4 32.98 20.54 15.4 27.85 27.6 49.4 41.11 17.97 11.27 30.23 11.29 49.4 20.82 20.35 10.12 29.52 17.2 49.4 28.32 19.64 10.97 28.86 17.94 49.4 26.89 18.98 8.27 30.14 8.45 49.4 16.16 20.26 8.12 29.64 14.05 49.4 23.4" style="fill:none;stroke-width:3;stroke-linecap:butt;stroke-linejoin:miter;stroke:#4bc0c0;stroke-opacity:1;stroke-miterlimit:10"/></g><path d="M53.4 32c0 4-6 4-6 0s6-4 6 0Zm0 0" style="stroke:none;fill-rule:nonzero;fill:#000;fill-opacity:.0980392"/><g clip-path="url(#b)"><path d="M53.4 32c0 4-6 4-6 0s6-4 6 0Zm0 0" style="fill:none;stroke-width:1;stroke-linecap:butt;stroke-linejoin:miter;stroke:#4bc0c0;stroke-opacity:1;stroke-miterlimit:10"/></g><path d="M102.8 32c0 4-6 4-6 0s6-4 6 0Zm0 0" style="stroke:none;fill-rule:nonzero;fill:#000;fill-opacity:.0980392"/><g clip-path="url(#c)"><path d="M102.8 32c0 4-6 4-6 0s6-4 6 0Zm0 0" style="fill:none;stroke-width:1;stroke-linecap:butt;stroke-linejoin:miter;stroke:#4bc0c0;stroke-opacity:1;stroke-miterlimit:10"/></g><path d="M152.2 32c0 4-6 4-6 0s6-4 6 0Zm0 0" style="stroke:none;fill-rule:nonzero;fill:#000;fill-opacity:.0980392"/><g clip-path="url(#d)"><path d="M152.2 32c0 4-6 4-6 0s6-4 6 0Zm0 0" style="fill:none;stroke-width:1;stroke-linecap:butt;stroke-linejoin:miter;stroke:#4bc0c0;stroke-opacity:1;stroke-miterlimit:10"/></g><path d="M201.6 32c0 4-6 4-6 0s6-4 6 0Zm0 0" style="stroke:none;fill-rule:nonzero;fill:#000;fill-opacity:.0980392"/><g clip-path="url(#e)"><path d="M201.6 32c0 4-6 4-6 0s6-4 6 0Zm0 0" style="fill:none;stroke-width:1;stroke-linecap:butt;stroke-linejoin:miter;stroke:#4bc0c0;stroke-opacity:1;stroke-miterlimit:10"/></g><path d="M251 32c0 4-6 4-6 0s6-4 6 0Zm0 0" style="stroke:none;fill-rule:nonzero;fill:#000;fill-opacity:.0980392"/><g clip-path="url(#f)"><path d="M251 32c0 4-6 4-6 0s6-4 6 0Zm0 0" style="fill:none;stroke-width:1;stroke-linecap:butt;stroke-linejoin:miter;stroke:#4bc0c0;stroke-opacity:1;stroke-miterlimit:10"/></g><path d="M300.4 32c0 4-6 4-6 0s6-4 6 0Zm0 0" style="stroke:none;fill-rule:nonzero;fill:#000;fill-opacity:.0980392"/><g clip-path="url(#g)"><path d="M300.4 32c0 4-6 4-6 0s6-4 6 0Zm0 0" style="fill:none;stroke-width:1;stroke-linecap:butt;stroke-linejoin:miter;stroke:#4bc0c0;stroke-opacity:1;stroke-miterlimit:10"/></g><path d="M349.8 32c0 4-6 4-6 0s6-4 6 0Zm0 0" style="stroke:none;fill-rule:nonzero;fill:#000;fill-opacity:.0980392"/><g clip-path="url(#h)"><path d="M349.8 32c0 4-6 4-6 0s6-4 6 0Zm0 0" style="fill:none;stroke-width:1;stroke-linecap:butt;stroke-linejoin:miter;stroke:#4bc0c0;stroke-opacity:1;stroke-miterlimit:10"/></g><path d="M399.2 32c0 4-6 4-6 0s6-4 6 0Zm0 0" style="stroke:none;fill-rule:nonzero;fill:#000;fill-opacity:.0980392"/><g clip-path="url(#i)"><path d="M399.2 32c0 4-6 4-6 0s6-4 6 0Zm0 0" style="fill:none;stroke-width:1;stroke-linecap:butt;stroke-linejoin:miter;stroke:#4bc0c0;stroke-opacity:1;stroke-miterlimit:10"/></g><path d="M448.6 32c0 4-6 4-6 0s6-4 6 0Zm0 0" style="stroke:none;fill-rule:nonzero;fill:#000;fill-opacity:.0980392"/><g clip-path="url(#j)"><path d="M448.6 32c0 4-6 4-6 0s6-4 6 0Zm0 0" style="fill:none;stroke-width:1;stroke-linecap:butt;stroke-linejoin:miter;stroke:#4bc0c0;stroke-opacity:1;stroke-miterlimit:10"/></g><path d="M498 32c0 4-6 4-6 0s6-4 6 0Zm0 0" style="stroke:none;fill-rule:nonzero;fill:#000;fill-opacity:.0980392"/><g clip-path="url(#k)"><path d="M498 32c0 4-6 4-6 0s6-4 6 0Zm0 0" style="fill:none;stroke-width:1;stroke-linecap:butt;stroke-linejoin:miter;stroke:#4bc0c0;stroke-opacity:1;stroke-miterlimit:10"/></g><path d="M547.4 32c0 4-6 4-6 0s6-4 6 0Zm0 0" style="stroke:none;fill-rule:nonzero;fill:#000;fill-opacity:.0980392"/><g clip-path="url(#l)"><path d="M547.4 32c0 4-6 4-6 0s6-4 6 0Zm0 0" style="fill:none;stroke-width:1;stroke-linecap:butt;stroke-linejoin:miter;stroke:#4bc0c0;stroke-opacity:1;stroke-miterlimit:10"/></g><path d="M596.8 32c0 4-6 4-6 0s6-4 6 0Zm0 0" style="stroke:none;fill-rule:nonzero;fill:#000;fill-opacity:.0980392"/><g clip-path="url(#m)"><path d="M596.8 32c0 4-6 4-6 0s6-4 6 0Zm0 0" style="fill:none;stroke-width:1;stroke-linecap:butt;stroke-linejoin:miter;stroke:#4bc0c0;stroke-opacity:1;stroke-miterlimit:10"/></g><path d="M646.2 32c0 4-6 4-6 0s6-4 6 0Zm0 0" style="stroke:none;fill-rule:nonzero;fill:#000;fill-opacity:.0980392"/><g clip-path="url(#n)"><path d="M646.2 32c0 4-6 4-6 0s6-4 6 0Zm0 0" style="fill:none;stroke-width:1;stroke-linecap:butt;stroke-linejoin:miter;stroke:#4bc0c0;stroke-opacity:1;stroke-miterlimit:10"/></g><path d="M695.6 32c0 4-6 4-6 0s6-4 6 0Zm0 0" style="stroke:none;fill-rule:nonzero;fill:#000;fill-opacity:.0980392"/><g clip-path="url(#o)"><path d="M695.6 32c0 4-6 4-6 0s6-4 6 0Zm0 0" style="fill:none;stroke-width:1;stroke-linecap:butt;stroke-linejoin:miter;stroke:#4bc0c0;stroke-opacity:1;stroke-miterlimit:10"/></g><path d="M745 32c0 4-6 4-6 0s6-4 6 0Zm0 0" style="stroke:none;fill-rule:nonzero;fill:#000;fill-opacity:.0980392"/><g clip-path="url(#p)"><path d="M745 32c0 4-6 4-6 0s6-4 6 0Zm0 0" style="fill:none;stroke-width:1;stroke-linecap:butt;stroke-linejoin:miter;stroke:#4bc0c0;stroke-opacity:1;stroke-miterlimit:10"/></g><path d="M794.4 32c0 4-6 4-6 0s6-4 6 0Zm0 0" style="stroke:none;fill-rule:nonzero;fill:#000;fill-opacity:.0980392"/><g clip-path="url(#q)"><path d="M794.4 32c0 4-6 4-6 0s6-4 6 0Zm0 0" style="fill:none;stroke-width:1;stroke-linecap:butt;stroke-linejoin:miter;stroke:#4bc0c0;stroke-opacity:1;stroke-miterlimit:10"/></g><path d="M843.8 100.14c0 4-6 4-6 0s6-4 6 0ZM893.2 102.47c0 4-6 4-6 0s6-4 6 0ZM942.6 199.7c0 4-6 4-6 0s6-4 6 0ZM992 243.92c0 4-6 4-6 0s6-4 6 0ZM1041.4 261c0 4-6 4-6 0s6-4 6 0ZM1090.8 290.6c0 4-6 4-6 0s6-4 6 0ZM1140.2 328.61c0 4-6 4-6 0s6-4 6 0ZM1189.6 361.59c0 4-6 4-6 0s6-4 6 0ZM1239 402.7c0 4-6 4-6 0s6-4 6 0ZM1288.4 423.52c0 4-6 4-6 0s6-4 6 0ZM1337.8 451.84c0 4-6 4-6 0s6-4 6 0ZM1387.2 478.73c0 4-6 4-6 0s6-4 6 0ZM1436.6 494.9c0 4-6 4-6 0s6-4 6 0Zm0 0" style="fill-rule:nonzero;fill:#000;fill-opacity:.0980392;stroke-width:1;stroke-linecap:butt;stroke-linejoin:miter;stroke:#4bc0c0;stroke-opacity:1;stroke-miterlimit:10"/><path d="M1486 518.3c0 4-6 4-6 0s6-4 6 0Zm0 0" style="stroke:none;fill-rule:nonzero;fill:#000;fill-opacity:.0980392"/><g clip-path="url(#r)"><path d="M1486 518.3c0 4-6 4-6 0s6-4 6 0Zm0 0" style="fill:none;stroke-width:1;stroke-linecap:butt;stroke-linejoin:miter;stroke:#4bc0c0;stroke-opacity:1;stroke-miterlimit:10"/></g></svg>